<svg xmlns="http://www.w3.org/2000/svg" xmlns:xlink="http://www.w3.org/1999/xlink" width="241" height="129" viewBox="0 0 241 129"><defs><path id="rx9ka" d="M555.5 2795.63a2.5 2.5 0 1 1 5 0 2.5 2.5 0 0 1-5 0z"/><path id="rx9kb" d="M561.69 2795.63a2.5 2.5 0 1 1 5 0 2.5 2.5 0 0 1-5 0z"/><path id="rx9kc" d="M567.89 2795.63a2.5 2.5 0 1 1 5 0 2.5 2.5 0 0 1-5 0z"/><path id="rx9kd" d="M574.08 2795.63a2.5 2.5 0 1 1 5 0 2.5 2.5 0 0 1-5 0z"/><path id="rx9ke" d="M580.27 2795.63a2.5 2.5 0 1 1 5 0 2.5 2.5 0 0 1-5 0z"/><path id="rx9kf" d="M586.47 2795.63a2.5 2.5 0 1 1 5 0 2.5 2.5 0 0 1-5 0z"/><path id="rx9kg" d="M592.66 2795.63a2.5 2.5 0 1 1 5 0 2.5 2.5 0 0 1-5 0z"/><path id="rx9kh" d="M592.66 2808.02a2.5 2.5 0 1 1 5 0 2.5 2.5 0 0 1-5 0z"/><path id="rx9ki" d="M598.85 2795.63a2.5 2.5 0 1 1 5 0 2.5 2.5 0 0 1-5 0z"/><path id="rx9kj" d="M598.85 2808.02a2.5 2.5 0 1 1 5 0 2.5 2.5 0 0 1-5 0z"/><path id="rx9kk" d="M605.05 2795.63a2.5 2.5 0 1 1 5 0 2.5 2.5 0 0 1-5 0z"/><path id="rx9kl" d="M605.05 2808.02a2.5 2.5 0 1 1 5 0 2.5 2.5 0 0 1-5 0z"/><path id="rx9km" d="M611.24 2795.63a2.5 2.5 0 1 1 5 0 2.5 2.5 0 0 1-5 0z"/><path id="rx9kn" d="M611.24 2808.02a2.5 2.5 0 1 1 5 0 2.5 2.5 0 0 1-5 0z"/><path id="rx9ko" d="M617.44 2795.63a2.5 2.5 0 1 1 5 0 2.5 2.5 0 0 1-5 0z"/><path id="rx9kp" d="M617.44 2808.02a2.5 2.5 0 1 1 5 0 2.5 2.5 0 0 1-5 0z"/><path id="rx9kq" d="M623.63 2795.63a2.5 2.5 0 1 1 5 0 2.5 2.5 0 0 1-5 0z"/><path id="rx9kr" d="M629.82 2795.63a2.5 2.5 0 1 1 5 0 2.5 2.5 0 0 1-5 0z"/><path id="rx9ks" d="M636.02 2795.63a2.5 2.5 0 1 1 5 0 2.5 2.5 0 0 1-5 0z"/><path id="rx9kt" d="M642.21 2795.63a2.5 2.5 0 1 1 5 0 2.5 2.5 0 0 1-5 0z"/><path id="rx9ku" d="M648.4 2795.63a2.5 2.5 0 1 1 5 0 2.5 2.5 0 0 1-5 0z"/><path id="rx9kv" d="M654.6 2795.63a2.5 2.5 0 1 1 5 0 2.5 2.5 0 0 1-5 0z"/><path id="rx9kw" d="M660.79 2795.63a2.5 2.5 0 1 1 5 0 2.5 2.5 0 0 1-5 0z"/><path id="rx9kx" d="M666.98 2795.63a2.5 2.5 0 1 1 5 0 2.5 2.5 0 0 1-5 0z"/><path id="rx9ky" d="M673.18 2795.63a2.5 2.5 0 1 1 5 0 2.5 2.5 0 0 1-5 0z"/><path id="rx9kz" d="M679.37 2795.63a2.5 2.5 0 1 1 5 0 2.5 2.5 0 0 1-5 0z"/><path id="rx9kA" d="M685.56 2795.63a2.5 2.5 0 1 1 5 0 2.5 2.5 0 0 1-5 0z"/><path id="rx9kB" d="M691.76 2795.63a2.5 2.5 0 1 1 5 0 2.5 2.5 0 0 1-5 0z"/><path id="rx9kC" d="M697.95 2795.63a2.5 2.5 0 1 1 5 0 2.5 2.5 0 0 1-5 0z"/><path id="rx9kD" d="M704.15 2795.63a2.5 2.5 0 1 1 5 0 2.5 2.5 0 0 1-5 0z"/><path id="rx9kE" d="M710.34 2795.63a2.5 2.5 0 1 1 5 0 2.5 2.5 0 0 1-5 0z"/><path id="rx9kF" d="M716.53 2795.63a2.5 2.5 0 1 1 5 0 2.5 2.5 0 0 1-5 0z"/><path id="rx9kG" d="M722.73 2795.63a2.5 2.5 0 1 1 5 0 2.5 2.5 0 0 1-5 0z"/><path id="rx9kH" d="M623.63 2808.02a2.5 2.5 0 1 1 5 0 2.5 2.5 0 0 1-5 0z"/><path id="rx9kI" d="M629.82 2808.02a2.5 2.5 0 1 1 5 0 2.5 2.5 0 0 1-5 0z"/><path id="rx9kJ" d="M636.02 2808.02a2.5 2.5 0 1 1 5 0 2.5 2.5 0 0 1-5 0z"/><path id="rx9kK" d="M642.21 2808.02a2.5 2.5 0 1 1 5 0 2.5 2.5 0 0 1-5 0z"/><path id="rx9kL" d="M648.4 2808.02a2.5 2.5 0 1 1 5 0 2.5 2.5 0 0 1-5 0z"/><path id="rx9kM" d="M654.6 2808.02a2.5 2.5 0 1 1 5 0 2.5 2.5 0 0 1-5 0z"/><path id="rx9kN" d="M660.79 2808.02a2.5 2.5 0 1 1 5 0 2.5 2.5 0 0 1-5 0z"/><path id="rx9kO" d="M666.98 2808.02a2.5 2.5 0 1 1 5 0 2.5 2.5 0 0 1-5 0z"/><path id="rx9kP" d="M673.18 2808.02a2.5 2.5 0 1 1 5 0 2.5 2.5 0 0 1-5 0z"/><path id="rx9kQ" d="M679.37 2808.02a2.5 2.5 0 1 1 5 0 2.5 2.5 0 0 1-5 0z"/><path id="rx9kR" d="M685.56 2808.02a2.5 2.5 0 1 1 5 0 2.5 2.5 0 0 1-5 0z"/><path id="rx9kS" d="M691.76 2808.02a2.5 2.5 0 1 1 5 0 2.5 2.5 0 0 1-5 0z"/><path id="rx9kT" d="M697.95 2808.02a2.5 2.5 0 1 1 5 0 2.5 2.5 0 0 1-5 0z"/><path id="rx9kU" d="M704.15 2808.02a2.5 2.5 0 1 1 5 0 2.5 2.5 0 0 1-5 0z"/><path id="rx9kV" d="M710.34 2808.02a2.5 2.5 0 1 1 5 0 2.5 2.5 0 0 1-5 0z"/><path id="rx9kW" d="M716.53 2808.02a2.5 2.5 0 1 1 5 0 2.5 2.5 0 0 1-5 0z"/><path id="rx9kX" d="M722.73 2808.02a2.5 2.5 0 1 1 5 0 2.5 2.5 0 0 1-5 0z"/><path id="rx9kY" d="M728.92 2808.02a2.5 2.5 0 1 1 5 0 2.5 2.5 0 0 1-5 0z"/><path id="rx9kZ" d="M753.69 2808.02a2.5 2.5 0 1 1 5 0 2.5 2.5 0 0 1-5 0z"/><path id="rx9kaa" d="M753.69 2814.21a2.5 2.5 0 1 1 5 0 2.5 2.5 0 0 1-5 0z"/><path id="rx9kab" d="M753.69 2820.4a2.5 2.5 0 1 1 5 0 2.5 2.5 0 0 1-5 0z"/><path id="rx9kac" d="M753.69 2826.6a2.5 2.5 0 1 1 5 0 2.5 2.5 0 0 1-5 0z"/><path id="rx9kad" d="M753.69 2832.79a2.5 2.5 0 1 1 5 0 2.5 2.5 0 0 1-5 0z"/><path id="rx9kae" d="M735.11 2808.02a2.5 2.5 0 1 1 5 0 2.5 2.5 0 0 1-5 0z"/><path id="rx9kaf" d="M759.89 2808.02a2.5 2.5 0 1 1 5 0 2.5 2.5 0 0 1-5 0z"/><path id="rx9kag" d="M759.89 2814.21a2.5 2.5 0 1 1 5 0 2.5 2.5 0 0 1-5 0z"/><path id="rx9kah" d="M759.89 2820.4a2.5 2.5 0 1 1 5 0 2.5 2.5 0 0 1-5 0z"/><path id="rx9kai" d="M759.89 2826.6a2.5 2.5 0 1 1 5 0 2.5 2.5 0 0 1-5 0z"/><path id="rx9kaj" d="M759.89 2832.79a2.5 2.5 0 1 1 5 0 2.5 2.5 0 0 1-5 0z"/><path id="rx9kak" d="M741.31 2808.02a2.5 2.5 0 1 1 5 0 2.5 2.5 0 0 1-5 0z"/><path id="rx9kal" d="M766.08 2808.02a2.5 2.5 0 1 1 5 0 2.5 2.5 0 0 1-5 0z"/><path id="rx9kam" d="M766.08 2814.21a2.5 2.5 0 1 1 5 0 2.5 2.5 0 0 1-5 0z"/><path id="rx9kan" d="M766.08 2820.4a2.5 2.5 0 1 1 5 0 2.5 2.5 0 0 1-5 0z"/><path id="rx9kao" d="M766.08 2826.6a2.5 2.5 0 1 1 5 0 2.5 2.5 0 0 1-5 0z"/><path id="rx9kap" d="M766.08 2832.79a2.5 2.5 0 1 1 5 0 2.5 2.5 0 0 1-5 0z"/><path id="rx9kaq" d="M772.27 2832.79a2.5 2.5 0 1 1 5 0 2.5 2.5 0 0 1-5 0z"/><path id="rx9kar" d="M766.08 2838.98a2.5 2.5 0 1 1 5 0 2.5 2.5 0 0 1-5 0z"/><path id="rx9kas" d="M766.08 2845.18a2.5 2.5 0 1 1 5 0 2.5 2.5 0 0 1-5 0z"/><path id="rx9kat" d="M759.89 2845.18a2.5 2.5 0 1 1 5 0 2.5 2.5 0 0 1-5 0z"/><path id="rx9kau" d="M766.08 2851.37a2.5 2.5 0 1 1 5 0 2.5 2.5 0 0 1-5 0z"/><path id="rx9kav" d="M772.27 2838.98a2.5 2.5 0 1 1 5 0 2.5 2.5 0 0 1-5 0z"/><path id="rx9kaw" d="M772.27 2845.18a2.5 2.5 0 1 1 5 0 2.5 2.5 0 0 1-5 0z"/><path id="rx9kax" d="M766.08 2801.82a2.5 2.5 0 1 1 5 0 2.5 2.5 0 0 1-5 0z"/><path id="rx9kay" d="M735.11 2801.82a2.5 2.5 0 1 1 5 0 2.5 2.5 0 0 1-5 0z"/><path id="rx9kaz" d="M747.5 2801.82a2.5 2.5 0 1 1 5 0 2.5 2.5 0 0 1-5 0z"/><path id="rx9kaA" d="M747.5 2808.02a2.5 2.5 0 1 1 5 0 2.5 2.5 0 0 1-5 0z"/><path id="rx9kaB" d="M772.27 2808.02a2.5 2.5 0 1 1 5 0 2.5 2.5 0 0 1-5 0z"/><path id="rx9kaC" d="M772.27 2814.21a2.5 2.5 0 1 1 5 0 2.5 2.5 0 0 1-5 0z"/><path id="rx9kaD" d="M778.47 2814.21a2.5 2.5 0 1 1 5 0 2.5 2.5 0 0 1-5 0z"/><path id="rx9kaE" d="M778.47 2820.4a2.5 2.5 0 1 1 5 0 2.5 2.5 0 0 1-5 0z"/><path id="rx9kaF" d="M778.47 2826.6a2.5 2.5 0 1 1 5 0 2.5 2.5 0 0 1-5 0z"/><path id="rx9kaG" d="M567.89 2783.24a2.5 2.5 0 1 1 5 0 2.5 2.5 0 0 1-5 0z"/><path id="rx9kaH" d="M567.89 2752.27a2.5 2.5 0 1 1 5 0 2.5 2.5 0 0 1-5 0z"/><path id="rx9kaI" d="M561.69 2752.27a2.5 2.5 0 1 1 5 0 2.5 2.5 0 0 1-5 0z"/><path id="rx9kaJ" d="M574.08 2783.24a2.5 2.5 0 1 1 5 0 2.5 2.5 0 0 1-5 0z"/><path id="rx9kaK" d="M580.27 2783.24a2.5 2.5 0 1 1 5 0 2.5 2.5 0 0 1-5 0z"/><path id="rx9kaL" d="M586.47 2783.24a2.5 2.5 0 1 1 5 0 2.5 2.5 0 0 1-5 0z"/><path id="rx9kaM" d="M592.66 2783.24a2.5 2.5 0 1 1 5 0 2.5 2.5 0 0 1-5 0z"/><path id="rx9kaN" d="M598.85 2783.24a2.5 2.5 0 1 1 5 0 2.5 2.5 0 0 1-5 0z"/><path id="rx9kaO" d="M605.05 2783.24a2.5 2.5 0 1 1 5 0 2.5 2.5 0 0 1-5 0z"/><path id="rx9kaP" d="M611.24 2783.24a2.5 2.5 0 1 1 5 0 2.5 2.5 0 0 1-5 0z"/><path id="rx9kaQ" d="M617.44 2783.24a2.5 2.5 0 1 1 5 0 2.5 2.5 0 0 1-5 0z"/><path id="rx9kaR" d="M623.63 2783.24a2.5 2.5 0 1 1 5 0 2.5 2.5 0 0 1-5 0z"/><path id="rx9kaS" d="M629.82 2783.24a2.5 2.5 0 1 1 5 0 2.5 2.5 0 0 1-5 0z"/><path id="rx9kaT" d="M636.02 2783.24a2.5 2.5 0 1 1 5 0 2.5 2.5 0 0 1-5 0z"/><path id="rx9kaU" d="M642.21 2783.24a2.5 2.5 0 1 1 5 0 2.5 2.5 0 0 1-5 0z"/><path id="rx9kaV" d="M648.4 2783.24a2.5 2.5 0 1 1 5 0 2.5 2.5 0 0 1-5 0z"/><path id="rx9kaW" d="M654.6 2783.24a2.5 2.5 0 1 1 5 0 2.5 2.5 0 0 1-5 0z"/><path id="rx9kaX" d="M660.79 2783.24a2.5 2.5 0 1 1 5 0 2.5 2.5 0 0 1-5 0z"/><path id="rx9kaY" d="M666.98 2783.24a2.5 2.5 0 1 1 5 0 2.5 2.5 0 0 1-5 0z"/><path id="rx9kaZ" d="M673.18 2783.24a2.5 2.5 0 1 1 5 0 2.5 2.5 0 0 1-5 0z"/><path id="rx9kba" d="M679.37 2783.24a2.5 2.5 0 1 1 5 0 2.5 2.5 0 0 1-5 0z"/><path id="rx9kbb" d="M685.56 2783.24a2.5 2.5 0 1 1 5 0 2.5 2.5 0 0 1-5 0z"/><path id="rx9kbc" d="M691.76 2783.24a2.5 2.5 0 1 1 5 0 2.5 2.5 0 0 1-5 0z"/><path id="rx9kbd" d="M697.95 2783.24a2.5 2.5 0 1 1 5 0 2.5 2.5 0 0 1-5 0z"/><path id="rx9kbe" d="M704.15 2783.24a2.5 2.5 0 1 1 5 0 2.5 2.5 0 0 1-5 0z"/><path id="rx9kbf" d="M710.34 2783.24a2.5 2.5 0 1 1 5 0 2.5 2.5 0 0 1-5 0z"/><path id="rx9kbg" d="M716.53 2783.24a2.5 2.5 0 1 1 5 0 2.5 2.5 0 0 1-5 0z"/><path id="rx9kbh" d="M722.73 2783.24a2.5 2.5 0 1 1 5 0 2.5 2.5 0 0 1-5 0z"/><path id="rx9kbi" d="M574.08 2770.85a2.5 2.5 0 1 1 5 0 2.5 2.5 0 0 1-5 0z"/><path id="rx9kbj" d="M580.27 2770.85a2.5 2.5 0 1 1 5 0 2.5 2.5 0 0 1-5 0z"/><path id="rx9kbk" d="M586.47 2770.85a2.5 2.5 0 1 1 5 0 2.5 2.5 0 0 1-5 0z"/><path id="rx9kbl" d="M592.66 2770.85a2.5 2.5 0 1 1 5 0 2.5 2.5 0 0 1-5 0z"/><path id="rx9kbm" d="M598.85 2770.85a2.5 2.5 0 1 1 5 0 2.5 2.5 0 0 1-5 0z"/><path id="rx9kbn" d="M605.05 2770.85a2.5 2.5 0 1 1 5 0 2.5 2.5 0 0 1-5 0z"/><path id="rx9kbo" d="M611.24 2770.85a2.5 2.5 0 1 1 5 0 2.5 2.5 0 0 1-5 0z"/><path id="rx9kbp" d="M617.44 2770.85a2.5 2.5 0 1 1 5 0 2.5 2.5 0 0 1-5 0z"/><path id="rx9kbq" d="M623.63 2770.85a2.5 2.5 0 1 1 5 0 2.5 2.5 0 0 1-5 0z"/><path id="rx9kbr" d="M629.82 2770.85a2.5 2.5 0 1 1 5 0 2.5 2.5 0 0 1-5 0z"/><path id="rx9kbs" d="M623.63 2758.47a2.5 2.5 0 1 1 5 0 2.5 2.5 0 0 1-5 0z"/><path id="rx9kbt" d="M636.02 2770.85a2.5 2.5 0 1 1 5 0 2.5 2.5 0 0 1-5 0z"/><path id="rx9kbu" d="M636.02 2764.66a2.5 2.5 0 1 1 5 0 2.5 2.5 0 0 1-5 0z"/><path id="rx9kbv" d="M642.21 2770.85a2.5 2.5 0 1 1 5 0 2.5 2.5 0 0 1-5 0z"/><path id="rx9kbw" d="M642.21 2758.47a2.5 2.5 0 1 1 5 0 2.5 2.5 0 0 1-5 0z"/><path id="rx9kbx" d="M642.21 2764.66a2.5 2.5 0 1 1 5 0 2.5 2.5 0 0 1-5 0z"/><path id="rx9kby" d="M642.21 2752.27a2.5 2.5 0 1 1 5 0 2.5 2.5 0 0 1-5 0z"/><path id="rx9kbz" d="M648.4 2752.27a2.5 2.5 0 1 1 5 0 2.5 2.5 0 0 1-5 0z"/><path id="rx9kbA" d="M654.6 2752.27a2.5 2.5 0 1 1 5 0 2.5 2.5 0 0 1-5 0z"/><path id="rx9kbB" d="M648.4 2770.85a2.5 2.5 0 1 1 5 0 2.5 2.5 0 0 1-5 0z"/><path id="rx9kbC" d="M654.6 2770.85a2.5 2.5 0 1 1 5 0 2.5 2.5 0 0 1-5 0z"/><path id="rx9kbD" d="M654.6 2764.66a2.5 2.5 0 1 1 5 0 2.5 2.5 0 0 1-5 0z"/><path id="rx9kbE" d="M660.79 2770.85a2.5 2.5 0 1 1 5 0 2.5 2.5 0 0 1-5 0z"/><path id="rx9kbF" d="M660.79 2764.66a2.5 2.5 0 1 1 5 0 2.5 2.5 0 0 1-5 0z"/><path id="rx9kbG" d="M666.98 2770.85a2.5 2.5 0 1 1 5 0 2.5 2.5 0 0 1-5 0z"/><path id="rx9kbH" d="M666.98 2764.66a2.5 2.5 0 1 1 5 0 2.5 2.5 0 0 1-5 0z"/><path id="rx9kbI" d="M660.79 2758.47a2.5 2.5 0 1 1 5 0 2.5 2.5 0 0 1-5 0z"/><path id="rx9kbJ" d="M673.18 2770.85a2.5 2.5 0 1 1 5 0 2.5 2.5 0 0 1-5 0z"/><path id="rx9kbK" d="M673.18 2764.66a2.5 2.5 0 1 1 5 0 2.5 2.5 0 0 1-5 0z"/><path id="rx9kbL" d="M679.37 2770.85a2.5 2.5 0 1 1 5 0 2.5 2.5 0 0 1-5 0z"/><path id="rx9kbM" d="M679.37 2764.66a2.5 2.5 0 1 1 5 0 2.5 2.5 0 0 1-5 0z"/><path id="rx9kbN" d="M679.37 2758.47a2.5 2.5 0 1 1 5 0 2.5 2.5 0 0 1-5 0z"/><path id="rx9kbO" d="M679.37 2746.08a2.5 2.5 0 1 1 5 0 2.5 2.5 0 0 1-5 0z"/><path id="rx9kbP" d="M679.37 2739.89a2.5 2.5 0 1 1 5 0 2.5 2.5 0 0 1-5 0z"/><path id="rx9kbQ" d="M685.56 2770.85a2.5 2.5 0 1 1 5 0 2.5 2.5 0 0 1-5 0z"/><path id="rx9kbR" d="M685.56 2764.66a2.5 2.5 0 1 1 5 0 2.5 2.5 0 0 1-5 0z"/><path id="rx9kbS" d="M685.56 2758.47a2.5 2.5 0 1 1 5 0 2.5 2.5 0 0 1-5 0z"/><path id="rx9kbT" d="M685.56 2746.08a2.5 2.5 0 1 1 5 0 2.5 2.5 0 0 1-5 0z"/><path id="rx9kbU" d="M685.56 2739.89a2.5 2.5 0 1 1 5 0 2.5 2.5 0 0 1-5 0z"/><path id="rx9kbV" d="M691.76 2770.85a2.5 2.5 0 1 1 5 0 2.5 2.5 0 0 1-5 0z"/><path id="rx9kbW" d="M691.76 2764.66a2.5 2.5 0 1 1 5 0 2.5 2.5 0 0 1-5 0z"/><path id="rx9kbX" d="M691.76 2758.47a2.5 2.5 0 1 1 5 0 2.5 2.5 0 0 1-5 0z"/><path id="rx9kbY" d="M691.76 2746.08a2.5 2.5 0 1 1 5 0 2.5 2.5 0 0 1-5 0z"/><path id="rx9kbZ" d="M691.76 2752.27a2.5 2.5 0 1 1 5 0 2.5 2.5 0 0 1-5 0z"/><path id="rx9kca" d="M697.95 2770.85a2.5 2.5 0 1 1 5 0 2.5 2.5 0 0 1-5 0z"/><path id="rx9kcb" d="M697.95 2758.47a2.5 2.5 0 1 1 5 0 2.5 2.5 0 0 1-5 0z"/><path id="rx9kcc" d="M697.95 2752.27a2.5 2.5 0 1 1 5 0 2.5 2.5 0 0 1-5 0z"/><path id="rx9kcd" d="M704.15 2770.85a2.5 2.5 0 1 1 5 0 2.5 2.5 0 0 1-5 0z"/><path id="rx9kce" d="M704.15 2764.66a2.5 2.5 0 1 1 5 0 2.5 2.5 0 0 1-5 0z"/><path id="rx9kcf" d="M710.34 2770.85a2.5 2.5 0 1 1 5 0 2.5 2.5 0 0 1-5 0z"/><path id="rx9kcg" d="M710.34 2764.66a2.5 2.5 0 1 1 5 0 2.5 2.5 0 0 1-5 0z"/><path id="rx9kch" d="M710.34 2758.47a2.5 2.5 0 1 1 5 0 2.5 2.5 0 0 1-5 0z"/><path id="rx9kci" d="M728.92 2758.47a2.5 2.5 0 1 1 5 0 2.5 2.5 0 0 1-5 0z"/><path id="rx9kcj" d="M728.92 2764.66a2.5 2.5 0 1 1 5 0 2.5 2.5 0 0 1-5 0z"/><path id="rx9kck" d="M728.92 2777.05a2.5 2.5 0 1 1 5 0 2.5 2.5 0 0 1-5 0z"/><path id="rx9kcl" d="M728.92 2783.24a2.5 2.5 0 1 1 5 0 2.5 2.5 0 0 1-5 0z"/><path id="rx9kcm" d="M728.92 2789.44a2.5 2.5 0 1 1 5 0 2.5 2.5 0 0 1-5 0z"/><path id="rx9kcn" d="M728.92 2795.63a2.5 2.5 0 1 1 5 0 2.5 2.5 0 0 1-5 0z"/><path id="rx9kco" d="M728.92 2801.82a2.5 2.5 0 1 1 5 0 2.5 2.5 0 0 1-5 0z"/><path id="rx9kcp" d="M741.31 2801.82a2.5 2.5 0 1 1 5 0 2.5 2.5 0 0 1-5 0z"/><path id="rx9kcq" d="M728.92 2770.85a2.5 2.5 0 1 1 5 0 2.5 2.5 0 0 1-5 0z"/><path id="rx9kcr" d="M728.92 2752.27a2.5 2.5 0 1 1 5 0 2.5 2.5 0 0 1-5 0z"/><path id="rx9kcs" d="M728.92 2746.08a2.5 2.5 0 1 1 5 0 2.5 2.5 0 0 1-5 0z"/><path id="rx9kct" d="M716.53 2770.85a2.5 2.5 0 1 1 5 0 2.5 2.5 0 0 1-5 0z"/><path id="rx9kcu" d="M716.53 2764.66a2.5 2.5 0 1 1 5 0 2.5 2.5 0 0 1-5 0z"/><path id="rx9kcv" d="M716.53 2758.47a2.5 2.5 0 1 1 5 0 2.5 2.5 0 0 1-5 0z"/><path id="rx9kcw" d="M735.11 2758.47a2.5 2.5 0 1 1 5 0 2.5 2.5 0 0 1-5 0z"/><path id="rx9kcx" d="M735.11 2764.66a2.5 2.5 0 1 1 5 0 2.5 2.5 0 0 1-5 0z"/><path id="rx9kcy" d="M735.11 2777.05a2.5 2.5 0 1 1 5 0 2.5 2.5 0 0 1-5 0z"/><path id="rx9kcz" d="M735.11 2783.24a2.5 2.5 0 1 1 5 0 2.5 2.5 0 0 1-5 0z"/><path id="rx9kcA" d="M735.11 2789.44a2.5 2.5 0 1 1 5 0 2.5 2.5 0 0 1-5 0z"/><path id="rx9kcB" d="M735.11 2795.63a2.5 2.5 0 1 1 5 0 2.5 2.5 0 0 1-5 0z"/><path id="rx9kcC" d="M735.11 2770.85a2.5 2.5 0 1 1 5 0 2.5 2.5 0 0 1-5 0z"/><path id="rx9kcD" d="M735.11 2752.27a2.5 2.5 0 1 1 5 0 2.5 2.5 0 0 1-5 0z"/><path id="rx9kcE" d="M753.69 2746.08a2.5 2.5 0 1 1 5 0 2.5 2.5 0 0 1-5 0z"/><path id="rx9kcF" d="M753.69 2752.27a2.5 2.5 0 1 1 5 0 2.5 2.5 0 0 1-5 0z"/><path id="rx9kcG" d="M753.69 2758.47a2.5 2.5 0 1 1 5 0 2.5 2.5 0 0 1-5 0z"/><path id="rx9kcH" d="M753.69 2764.66a2.5 2.5 0 1 1 5 0 2.5 2.5 0 0 1-5 0z"/><path id="rx9kcI" d="M753.69 2770.85a2.5 2.5 0 1 1 5 0 2.5 2.5 0 0 1-5 0z"/><path id="rx9kcJ" d="M753.69 2739.89a2.5 2.5 0 1 1 5 0 2.5 2.5 0 0 1-5 0z"/><path id="rx9kcK" d="M722.73 2770.85a2.5 2.5 0 1 1 5 0 2.5 2.5 0 0 1-5 0z"/><path id="rx9kcL" d="M722.73 2764.66a2.5 2.5 0 1 1 5 0 2.5 2.5 0 0 1-5 0z"/><path id="rx9kcM" d="M722.73 2752.27a2.5 2.5 0 1 1 5 0 2.5 2.5 0 0 1-5 0z"/><path id="rx9kcN" d="M722.73 2746.08a2.5 2.5 0 1 1 5 0 2.5 2.5 0 0 1-5 0z"/><path id="rx9kcO" d="M716.53 2746.08a2.5 2.5 0 1 1 5 0 2.5 2.5 0 0 1-5 0z"/><path id="rx9kcP" d="M741.31 2758.47a2.5 2.5 0 1 1 5 0 2.5 2.5 0 0 1-5 0z"/><path id="rx9kcQ" d="M741.31 2764.66a2.5 2.5 0 1 1 5 0 2.5 2.5 0 0 1-5 0z"/><path id="rx9kcR" d="M741.31 2770.85a2.5 2.5 0 1 1 5 0 2.5 2.5 0 0 1-5 0z"/><path id="rx9kcS" d="M741.31 2777.05a2.5 2.5 0 1 1 5 0 2.5 2.5 0 0 1-5 0z"/><path id="rx9kcT" d="M741.31 2783.24a2.5 2.5 0 1 1 5 0 2.5 2.5 0 0 1-5 0z"/><path id="rx9kcU" d="M741.31 2789.44a2.5 2.5 0 1 1 5 0 2.5 2.5 0 0 1-5 0z"/><path id="rx9kcV" d="M741.31 2795.63a2.5 2.5 0 1 1 5 0 2.5 2.5 0 0 1-5 0z"/><path id="rx9kcW" d="M741.31 2752.27a2.5 2.5 0 1 1 5 0 2.5 2.5 0 0 1-5 0z"/><path id="rx9kcX" d="M759.89 2746.08a2.5 2.5 0 1 1 5 0 2.5 2.5 0 0 1-5 0z"/><path id="rx9kcY" d="M759.89 2752.27a2.5 2.5 0 1 1 5 0 2.5 2.5 0 0 1-5 0z"/><path id="rx9kcZ" d="M759.89 2758.47a2.5 2.5 0 1 1 5 0 2.5 2.5 0 0 1-5 0z"/><path id="rx9kda" d="M759.89 2764.66a2.5 2.5 0 1 1 5 0 2.5 2.5 0 0 1-5 0z"/><path id="rx9kdb" d="M759.89 2770.85a2.5 2.5 0 1 1 5 0 2.5 2.5 0 0 1-5 0z"/><path id="rx9kdc" d="M759.89 2777.05a2.5 2.5 0 1 1 5 0 2.5 2.5 0 0 1-5 0z"/><path id="rx9kdd" d="M759.89 2783.24a2.5 2.5 0 1 1 5 0 2.5 2.5 0 0 1-5 0z"/><path id="rx9kde" d="M759.89 2739.89a2.5 2.5 0 1 1 5 0 2.5 2.5 0 0 1-5 0z"/><path id="rx9kdf" d="M772.27 2739.89a2.5 2.5 0 1 1 5 0 2.5 2.5 0 0 1-5 0z"/><path id="rx9kdg" d="M772.27 2746.08a2.5 2.5 0 1 1 5 0 2.5 2.5 0 0 1-5 0z"/><path id="rx9kdh" d="M772.27 2752.27a2.5 2.5 0 1 1 5 0 2.5 2.5 0 0 1-5 0z"/><path id="rx9kdi" d="M772.27 2758.47a2.5 2.5 0 1 1 5 0 2.5 2.5 0 0 1-5 0z"/><path id="rx9kdj" d="M772.27 2764.66a2.5 2.5 0 1 1 5 0 2.5 2.5 0 0 1-5 0z"/><path id="rx9kdk" d="M772.27 2727.5a2.5 2.5 0 1 1 5 0 2.5 2.5 0 0 1-5 0z"/><path id="rx9kdl" d="M759.89 2733.69a2.5 2.5 0 1 1 5 0 2.5 2.5 0 0 1-5 0z"/><path id="rx9kdm" d="M772.27 2733.69a2.5 2.5 0 1 1 5 0 2.5 2.5 0 0 1-5 0z"/><path id="rx9kdn" d="M747.5 2758.47a2.5 2.5 0 1 1 5 0 2.5 2.5 0 0 1-5 0z"/><path id="rx9kdo" d="M747.5 2764.66a2.5 2.5 0 1 1 5 0 2.5 2.5 0 0 1-5 0z"/><path id="rx9kdp" d="M747.5 2770.85a2.5 2.5 0 1 1 5 0 2.5 2.5 0 0 1-5 0z"/><path id="rx9kdq" d="M747.5 2777.05a2.5 2.5 0 1 1 5 0 2.5 2.5 0 0 1-5 0z"/><path id="rx9kdr" d="M753.69 2777.05a2.5 2.5 0 1 1 5 0 2.5 2.5 0 0 1-5 0z"/><path id="rx9kds" d="M747.5 2783.24a2.5 2.5 0 1 1 5 0 2.5 2.5 0 0 1-5 0z"/><path id="rx9kdt" d="M753.69 2783.24a2.5 2.5 0 1 1 5 0 2.5 2.5 0 0 1-5 0z"/><path id="rx9kdu" d="M747.5 2789.44a2.5 2.5 0 1 1 5 0 2.5 2.5 0 0 1-5 0z"/><path id="rx9kdv" d="M747.5 2795.63a2.5 2.5 0 1 1 5 0 2.5 2.5 0 0 1-5 0z"/><path id="rx9kdw" d="M753.69 2789.44a2.5 2.5 0 1 1 5 0 2.5 2.5 0 0 1-5 0z"/><path id="rx9kdx" d="M753.69 2795.63a2.5 2.5 0 1 1 5 0 2.5 2.5 0 0 1-5 0z"/><path id="rx9kdy" d="M747.5 2752.27a2.5 2.5 0 1 1 5 0 2.5 2.5 0 0 1-5 0z"/><path id="rx9kdz" d="M766.08 2739.89a2.5 2.5 0 1 1 5 0 2.5 2.5 0 0 1-5 0z"/><path id="rx9kdA" d="M766.08 2746.08a2.5 2.5 0 1 1 5 0 2.5 2.5 0 0 1-5 0z"/><path id="rx9kdB" d="M766.08 2752.27a2.5 2.5 0 1 1 5 0 2.5 2.5 0 0 1-5 0z"/><path id="rx9kdC" d="M766.08 2758.47a2.5 2.5 0 1 1 5 0 2.5 2.5 0 0 1-5 0z"/><path id="rx9kdD" d="M766.08 2764.66a2.5 2.5 0 1 1 5 0 2.5 2.5 0 0 1-5 0z"/><path id="rx9kdE" d="M766.08 2770.85a2.5 2.5 0 1 1 5 0 2.5 2.5 0 0 1-5 0z"/><path id="rx9kdF" d="M766.08 2777.05a2.5 2.5 0 1 1 5 0 2.5 2.5 0 0 1-5 0z"/><path id="rx9kdG" d="M766.08 2783.24a2.5 2.5 0 1 1 5 0 2.5 2.5 0 0 1-5 0z"/><path id="rx9kdH" d="M778.47 2739.89a2.5 2.5 0 1 1 5 0 2.5 2.5 0 0 1-5 0z"/><path id="rx9kdI" d="M778.47 2746.08a2.5 2.5 0 1 1 5 0 2.5 2.5 0 0 1-5 0z"/><path id="rx9kdJ" d="M778.47 2752.27a2.5 2.5 0 1 1 5 0 2.5 2.5 0 0 1-5 0z"/><path id="rx9kdK" d="M778.47 2758.47a2.5 2.5 0 1 1 5 0 2.5 2.5 0 0 1-5 0z"/><path id="rx9kdL" d="M778.47 2764.66a2.5 2.5 0 1 1 5 0 2.5 2.5 0 0 1-5 0z"/><path id="rx9kdM" d="M778.47 2770.85a2.5 2.5 0 1 1 5 0 2.5 2.5 0 0 1-5 0z"/><path id="rx9kdN" d="M784.66 2770.85a2.5 2.5 0 1 1 5 0 2.5 2.5 0 0 1-5 0z"/><path id="rx9kdO" d="M778.47 2777.05a2.5 2.5 0 1 1 5 0 2.5 2.5 0 0 1-5 0z"/><path id="rx9kdP" d="M778.47 2783.24a2.5 2.5 0 1 1 5 0 2.5 2.5 0 0 1-5 0z"/><path id="rx9kdQ" d="M784.66 2777.05a2.5 2.5 0 1 1 5 0 2.5 2.5 0 0 1-5 0z"/><path id="rx9kdR" d="M784.66 2783.24a2.5 2.5 0 1 1 5 0 2.5 2.5 0 0 1-5 0z"/><path id="rx9kdS" d="M784.66 2789.44a2.5 2.5 0 1 1 5 0 2.5 2.5 0 0 1-5 0z"/><path id="rx9kdT" d="M790.85 2783.24a2.5 2.5 0 1 1 5 0 2.5 2.5 0 0 1-5 0z"/><path id="rx9kdU" d="M790.85 2789.44a2.5 2.5 0 1 1 5 0 2.5 2.5 0 0 1-5 0z"/><path id="rx9kdV" d="M790.85 2795.63a2.5 2.5 0 1 1 5 0 2.5 2.5 0 0 1-5 0z"/><path id="rx9kdW" d="M784.66 2739.89a2.5 2.5 0 1 1 5 0 2.5 2.5 0 0 1-5 0z"/><path id="rx9kdX" d="M784.66 2746.08a2.5 2.5 0 1 1 5 0 2.5 2.5 0 0 1-5 0z"/><path id="rx9kdY" d="M784.66 2752.27a2.5 2.5 0 1 1 5 0 2.5 2.5 0 0 1-5 0z"/><path id="rx9kdZ" d="M784.66 2758.47a2.5 2.5 0 1 1 5 0 2.5 2.5 0 0 1-5 0z"/><path id="rx9kea" d="M778.47 2727.5a2.5 2.5 0 1 1 5 0 2.5 2.5 0 0 1-5 0z"/><path id="rx9keb" d="M784.66 2727.5a2.5 2.5 0 1 1 5 0 2.5 2.5 0 0 1-5 0z"/><path id="rx9kec" d="M766.08 2733.69a2.5 2.5 0 1 1 5 0 2.5 2.5 0 0 1-5 0z"/><path id="rx9ked" d="M555.5 2801.82a2.5 2.5 0 1 1 5 0 2.5 2.5 0 0 1-5 0z"/><path id="rx9kee" d="M561.69 2801.82a2.5 2.5 0 1 1 5 0 2.5 2.5 0 0 1-5 0z"/><path id="rx9kef" d="M567.89 2801.82a2.5 2.5 0 1 1 5 0 2.5 2.5 0 0 1-5 0z"/><path id="rx9keg" d="M574.08 2801.82a2.5 2.5 0 1 1 5 0 2.5 2.5 0 0 1-5 0z"/><path id="rx9keh" d="M580.27 2801.82a2.5 2.5 0 1 1 5 0 2.5 2.5 0 0 1-5 0z"/><path id="rx9kei" d="M586.47 2801.82a2.5 2.5 0 1 1 5 0 2.5 2.5 0 0 1-5 0z"/><path id="rx9kej" d="M592.66 2801.82a2.5 2.5 0 1 1 5 0 2.5 2.5 0 0 1-5 0z"/><path id="rx9kek" d="M592.66 2814.21a2.5 2.5 0 1 1 5 0 2.5 2.5 0 0 1-5 0z"/><path id="rx9kel" d="M598.85 2801.82a2.5 2.5 0 1 1 5 0 2.5 2.5 0 0 1-5 0z"/><path id="rx9kem" d="M598.85 2814.21a2.5 2.5 0 1 1 5 0 2.5 2.5 0 0 1-5 0z"/><path id="rx9ken" d="M598.85 2820.4a2.5 2.5 0 1 1 5 0 2.5 2.5 0 0 1-5 0z"/><path id="rx9keo" d="M605.05 2801.82a2.5 2.5 0 1 1 5 0 2.5 2.5 0 0 1-5 0z"/><path id="rx9kep" d="M605.05 2814.21a2.5 2.5 0 1 1 5 0 2.5 2.5 0 0 1-5 0z"/><path id="rx9keq" d="M605.05 2820.4a2.5 2.5 0 1 1 5 0 2.5 2.5 0 0 1-5 0z"/><path id="rx9ker" d="M611.24 2801.82a2.5 2.5 0 1 1 5 0 2.5 2.5 0 0 1-5 0z"/><path id="rx9kes" d="M617.44 2801.82a2.5 2.5 0 1 1 5 0 2.5 2.5 0 0 1-5 0z"/><path id="rx9ket" d="M617.44 2814.21a2.5 2.5 0 1 1 5 0 2.5 2.5 0 0 1-5 0z"/><path id="rx9keu" d="M623.63 2801.82a2.5 2.5 0 1 1 5 0 2.5 2.5 0 0 1-5 0z"/><path id="rx9kev" d="M629.82 2801.82a2.5 2.5 0 1 1 5 0 2.5 2.5 0 0 1-5 0z"/><path id="rx9kew" d="M636.02 2801.82a2.5 2.5 0 1 1 5 0 2.5 2.5 0 0 1-5 0z"/><path id="rx9kex" d="M642.21 2801.82a2.5 2.5 0 1 1 5 0 2.5 2.5 0 0 1-5 0z"/><path id="rx9key" d="M648.4 2801.82a2.5 2.5 0 1 1 5 0 2.5 2.5 0 0 1-5 0z"/><path id="rx9kez" d="M654.6 2801.82a2.5 2.5 0 1 1 5 0 2.5 2.5 0 0 1-5 0z"/><path id="rx9keA" d="M660.79 2801.82a2.5 2.5 0 1 1 5 0 2.5 2.5 0 0 1-5 0z"/><path id="rx9keB" d="M666.98 2801.82a2.5 2.5 0 1 1 5 0 2.5 2.5 0 0 1-5 0z"/><path id="rx9keC" d="M673.18 2801.82a2.5 2.5 0 1 1 5 0 2.5 2.5 0 0 1-5 0z"/><path id="rx9keD" d="M679.37 2801.82a2.5 2.5 0 1 1 5 0 2.5 2.5 0 0 1-5 0z"/><path id="rx9keE" d="M685.56 2801.82a2.5 2.5 0 1 1 5 0 2.5 2.5 0 0 1-5 0z"/><path id="rx9keF" d="M691.76 2801.82a2.5 2.5 0 1 1 5 0 2.5 2.5 0 0 1-5 0z"/><path id="rx9keG" d="M697.95 2801.82a2.5 2.5 0 1 1 5 0 2.5 2.5 0 0 1-5 0z"/><path id="rx9keH" d="M704.15 2801.82a2.5 2.5 0 1 1 5 0 2.5 2.5 0 0 1-5 0z"/><path id="rx9keI" d="M710.34 2801.82a2.5 2.5 0 1 1 5 0 2.5 2.5 0 0 1-5 0z"/><path id="rx9keJ" d="M716.53 2801.82a2.5 2.5 0 1 1 5 0 2.5 2.5 0 0 1-5 0z"/><path id="rx9keK" d="M722.73 2801.82a2.5 2.5 0 1 1 5 0 2.5 2.5 0 0 1-5 0z"/><path id="rx9keL" d="M623.63 2814.21a2.5 2.5 0 1 1 5 0 2.5 2.5 0 0 1-5 0z"/><path id="rx9keM" d="M629.82 2814.21a2.5 2.5 0 1 1 5 0 2.5 2.5 0 0 1-5 0z"/><path id="rx9keN" d="M636.02 2814.21a2.5 2.5 0 1 1 5 0 2.5 2.5 0 0 1-5 0z"/><path id="rx9keO" d="M636.02 2820.4a2.5 2.5 0 1 1 5 0 2.5 2.5 0 0 1-5 0z"/><path id="rx9keP" d="M642.21 2814.21a2.5 2.5 0 1 1 5 0 2.5 2.5 0 0 1-5 0z"/><path id="rx9keQ" d="M642.21 2820.4a2.5 2.5 0 1 1 5 0 2.5 2.5 0 0 1-5 0z"/><path id="rx9keR" d="M642.21 2826.6a2.5 2.5 0 1 1 5 0 2.5 2.5 0 0 1-5 0z"/><path id="rx9keS" d="M642.21 2832.79a2.5 2.5 0 1 1 5 0 2.5 2.5 0 0 1-5 0z"/><path id="rx9keT" d="M648.4 2814.21a2.5 2.5 0 1 1 5 0 2.5 2.5 0 0 1-5 0z"/><path id="rx9keU" d="M648.4 2820.4a2.5 2.5 0 1 1 5 0 2.5 2.5 0 0 1-5 0z"/><path id="rx9keV" d="M648.4 2826.6a2.5 2.5 0 1 1 5 0 2.5 2.5 0 0 1-5 0z"/><path id="rx9keW" d="M648.4 2832.79a2.5 2.5 0 1 1 5 0 2.5 2.5 0 0 1-5 0z"/><path id="rx9keX" d="M648.4 2838.98a2.5 2.5 0 1 1 5 0 2.5 2.5 0 0 1-5 0z"/><path id="rx9keY" d="M654.6 2814.21a2.5 2.5 0 1 1 5 0 2.5 2.5 0 0 1-5 0z"/><path id="rx9keZ" d="M654.6 2820.4a2.5 2.5 0 1 1 5 0 2.5 2.5 0 0 1-5 0z"/><path id="rx9kfa" d="M654.6 2826.6a2.5 2.5 0 1 1 5 0 2.5 2.5 0 0 1-5 0z"/><path id="rx9kfb" d="M654.6 2832.79a2.5 2.5 0 1 1 5 0 2.5 2.5 0 0 1-5 0z"/><path id="rx9kfc" d="M654.6 2838.98a2.5 2.5 0 1 1 5 0 2.5 2.5 0 0 1-5 0z"/><path id="rx9kfd" d="M654.6 2845.18a2.5 2.5 0 1 1 5 0 2.5 2.5 0 0 1-5 0z"/><path id="rx9kfe" d="M660.79 2814.21a2.5 2.5 0 1 1 5 0 2.5 2.5 0 0 1-5 0z"/><path id="rx9kff" d="M660.79 2820.4a2.5 2.5 0 1 1 5 0 2.5 2.5 0 0 1-5 0z"/><path id="rx9kfg" d="M660.79 2826.6a2.5 2.5 0 1 1 5 0 2.5 2.5 0 0 1-5 0z"/><path id="rx9kfh" d="M660.79 2832.79a2.5 2.5 0 1 1 5 0 2.5 2.5 0 0 1-5 0z"/><path id="rx9kfi" d="M660.79 2838.98a2.5 2.5 0 1 1 5 0 2.5 2.5 0 0 1-5 0z"/><path id="rx9kfj" d="M660.79 2845.18a2.5 2.5 0 1 1 5 0 2.5 2.5 0 0 1-5 0z"/><path id="rx9kfk" d="M666.98 2814.21a2.5 2.5 0 1 1 5 0 2.5 2.5 0 0 1-5 0z"/><path id="rx9kfl" d="M666.98 2820.4a2.5 2.5 0 1 1 5 0 2.5 2.5 0 0 1-5 0z"/><path id="rx9kfm" d="M666.98 2826.6a2.5 2.5 0 1 1 5 0 2.5 2.5 0 0 1-5 0z"/><path id="rx9kfn" d="M666.98 2832.79a2.5 2.5 0 1 1 5 0 2.5 2.5 0 0 1-5 0z"/><path id="rx9kfo" d="M666.98 2838.98a2.5 2.5 0 1 1 5 0 2.5 2.5 0 0 1-5 0z"/><path id="rx9kfp" d="M666.98 2845.18a2.5 2.5 0 1 1 5 0 2.5 2.5 0 0 1-5 0z"/><path id="rx9kfq" d="M673.18 2814.21a2.5 2.5 0 1 1 5 0 2.5 2.5 0 0 1-5 0z"/><path id="rx9kfr" d="M673.18 2820.4a2.5 2.5 0 1 1 5 0 2.5 2.5 0 0 1-5 0z"/><path id="rx9kfs" d="M673.18 2826.6a2.5 2.5 0 1 1 5 0 2.5 2.5 0 0 1-5 0z"/><path id="rx9kft" d="M673.18 2832.79a2.5 2.5 0 1 1 5 0 2.5 2.5 0 0 1-5 0z"/><path id="rx9kfu" d="M673.18 2838.98a2.5 2.5 0 1 1 5 0 2.5 2.5 0 0 1-5 0z"/><path id="rx9kfv" d="M679.37 2814.21a2.5 2.5 0 1 1 5 0 2.5 2.5 0 0 1-5 0z"/><path id="rx9kfw" d="M679.37 2820.4a2.5 2.5 0 1 1 5 0 2.5 2.5 0 0 1-5 0z"/><path id="rx9kfx" d="M679.37 2826.6a2.5 2.5 0 1 1 5 0 2.5 2.5 0 0 1-5 0z"/><path id="rx9kfy" d="M679.37 2832.79a2.5 2.5 0 1 1 5 0 2.5 2.5 0 0 1-5 0z"/><path id="rx9kfz" d="M679.37 2838.98a2.5 2.5 0 1 1 5 0 2.5 2.5 0 0 1-5 0z"/><path id="rx9kfA" d="M679.37 2845.18a2.5 2.5 0 1 1 5 0 2.5 2.5 0 0 1-5 0z"/><path id="rx9kfB" d="M685.56 2814.21a2.5 2.5 0 1 1 5 0 2.5 2.5 0 0 1-5 0z"/><path id="rx9kfC" d="M685.56 2820.4a2.5 2.5 0 1 1 5 0 2.5 2.5 0 0 1-5 0z"/><path id="rx9kfD" d="M685.56 2826.6a2.5 2.5 0 1 1 5 0 2.5 2.5 0 0 1-5 0z"/><path id="rx9kfE" d="M685.56 2832.79a2.5 2.5 0 1 1 5 0 2.5 2.5 0 0 1-5 0z"/><path id="rx9kfF" d="M685.56 2838.98a2.5 2.5 0 1 1 5 0 2.5 2.5 0 0 1-5 0z"/><path id="rx9kfG" d="M691.76 2814.21a2.5 2.5 0 1 1 5 0 2.5 2.5 0 0 1-5 0z"/><path id="rx9kfH" d="M691.76 2820.4a2.5 2.5 0 1 1 5 0 2.5 2.5 0 0 1-5 0z"/><path id="rx9kfI" d="M691.76 2826.6a2.5 2.5 0 1 1 5 0 2.5 2.5 0 0 1-5 0z"/><path id="rx9kfJ" d="M691.76 2832.79a2.5 2.5 0 1 1 5 0 2.5 2.5 0 0 1-5 0z"/><path id="rx9kfK" d="M691.76 2838.98a2.5 2.5 0 1 1 5 0 2.5 2.5 0 0 1-5 0z"/><path id="rx9kfL" d="M697.95 2814.21a2.5 2.5 0 1 1 5 0 2.5 2.5 0 0 1-5 0z"/><path id="rx9kfM" d="M697.95 2820.4a2.5 2.5 0 1 1 5 0 2.5 2.5 0 0 1-5 0z"/><path id="rx9kfN" d="M697.95 2826.6a2.5 2.5 0 1 1 5 0 2.5 2.5 0 0 1-5 0z"/><path id="rx9kfO" d="M697.95 2832.79a2.5 2.5 0 1 1 5 0 2.5 2.5 0 0 1-5 0z"/><path id="rx9kfP" d="M697.95 2838.98a2.5 2.5 0 1 1 5 0 2.5 2.5 0 0 1-5 0z"/><path id="rx9kfQ" d="M697.95 2845.18a2.5 2.5 0 1 1 5 0 2.5 2.5 0 0 1-5 0z"/><path id="rx9kfR" d="M704.15 2814.21a2.5 2.5 0 1 1 5 0 2.5 2.5 0 0 1-5 0z"/><path id="rx9kfS" d="M704.15 2820.4a2.5 2.5 0 1 1 5 0 2.5 2.5 0 0 1-5 0z"/><path id="rx9kfT" d="M704.15 2826.6a2.5 2.5 0 1 1 5 0 2.5 2.5 0 0 1-5 0z"/><path id="rx9kfU" d="M704.15 2832.79a2.5 2.5 0 1 1 5 0 2.5 2.5 0 0 1-5 0z"/><path id="rx9kfV" d="M704.15 2838.98a2.5 2.5 0 1 1 5 0 2.5 2.5 0 0 1-5 0z"/><path id="rx9kfW" d="M704.15 2845.18a2.5 2.5 0 1 1 5 0 2.5 2.5 0 0 1-5 0z"/><path id="rx9kfX" d="M704.15 2851.37a2.5 2.5 0 1 1 5 0 2.5 2.5 0 0 1-5 0z"/><path id="rx9kfY" d="M710.34 2814.21a2.5 2.5 0 1 1 5 0 2.5 2.5 0 0 1-5 0z"/><path id="rx9kfZ" d="M710.34 2820.4a2.5 2.5 0 1 1 5 0 2.5 2.5 0 0 1-5 0z"/><path id="rx9kga" d="M710.34 2826.6a2.5 2.5 0 1 1 5 0 2.5 2.5 0 0 1-5 0z"/><path id="rx9kgb" d="M710.34 2832.79a2.5 2.5 0 1 1 5 0 2.5 2.5 0 0 1-5 0z"/><path id="rx9kgc" d="M710.34 2838.98a2.5 2.5 0 1 1 5 0 2.5 2.5 0 0 1-5 0z"/><path id="rx9kgd" d="M710.34 2845.18a2.5 2.5 0 1 1 5 0 2.5 2.5 0 0 1-5 0z"/><path id="rx9kge" d="M710.34 2851.37a2.5 2.5 0 1 1 5 0 2.5 2.5 0 0 1-5 0z"/><path id="rx9kgf" d="M716.53 2814.21a2.5 2.5 0 1 1 5 0 2.5 2.5 0 0 1-5 0z"/><path id="rx9kgg" d="M716.53 2820.4a2.5 2.5 0 1 1 5 0 2.5 2.5 0 0 1-5 0z"/><path id="rx9kgh" d="M716.53 2826.6a2.5 2.5 0 1 1 5 0 2.5 2.5 0 0 1-5 0z"/><path id="rx9kgi" d="M716.53 2832.79a2.5 2.5 0 1 1 5 0 2.5 2.5 0 0 1-5 0z"/><path id="rx9kgj" d="M716.53 2838.98a2.5 2.5 0 1 1 5 0 2.5 2.5 0 0 1-5 0z"/><path id="rx9kgk" d="M716.53 2845.18a2.5 2.5 0 1 1 5 0 2.5 2.5 0 0 1-5 0z"/><path id="rx9kgl" d="M722.73 2814.21a2.5 2.5 0 1 1 5 0 2.5 2.5 0 0 1-5 0z"/><path id="rx9kgm" d="M728.92 2814.21a2.5 2.5 0 1 1 5 0 2.5 2.5 0 0 1-5 0z"/><path id="rx9kgn" d="M735.11 2814.21a2.5 2.5 0 1 1 5 0 2.5 2.5 0 0 1-5 0z"/><path id="rx9kgo" d="M741.31 2814.21a2.5 2.5 0 1 1 5 0 2.5 2.5 0 0 1-5 0z"/><path id="rx9kgp" d="M741.31 2820.4a2.5 2.5 0 1 1 5 0 2.5 2.5 0 0 1-5 0z"/><path id="rx9kgq" d="M741.31 2826.6a2.5 2.5 0 1 1 5 0 2.5 2.5 0 0 1-5 0z"/><path id="rx9kgr" d="M747.5 2814.21a2.5 2.5 0 1 1 5 0 2.5 2.5 0 0 1-5 0z"/><path id="rx9kgs" d="M747.5 2820.4a2.5 2.5 0 1 1 5 0 2.5 2.5 0 0 1-5 0z"/><path id="rx9kgt" d="M747.5 2826.6a2.5 2.5 0 1 1 5 0 2.5 2.5 0 0 1-5 0z"/><path id="rx9kgu" d="M747.5 2832.79a2.5 2.5 0 1 1 5 0 2.5 2.5 0 0 1-5 0z"/><path id="rx9kgv" d="M722.73 2820.4a2.5 2.5 0 1 1 5 0 2.5 2.5 0 0 1-5 0z"/><path id="rx9kgw" d="M728.92 2820.4a2.5 2.5 0 1 1 5 0 2.5 2.5 0 0 1-5 0z"/><path id="rx9kgx" d="M735.11 2820.4a2.5 2.5 0 1 1 5 0 2.5 2.5 0 0 1-5 0z"/><path id="rx9kgy" d="M722.73 2826.6a2.5 2.5 0 1 1 5 0 2.5 2.5 0 0 1-5 0z"/><path id="rx9kgz" d="M728.92 2826.6a2.5 2.5 0 1 1 5 0 2.5 2.5 0 0 1-5 0z"/><path id="rx9kgA" d="M735.11 2826.6a2.5 2.5 0 1 1 5 0 2.5 2.5 0 0 1-5 0z"/><path id="rx9kgB" d="M728.92 2838.98a2.5 2.5 0 1 1 5 0 2.5 2.5 0 0 1-5 0z"/><path id="rx9kgC" d="M722.73 2832.79a2.5 2.5 0 1 1 5 0 2.5 2.5 0 0 1-5 0z"/><path id="rx9kgD" d="M722.73 2838.98a2.5 2.5 0 1 1 5 0 2.5 2.5 0 0 1-5 0z"/><path id="rx9kgE" d="M722.73 2845.18a2.5 2.5 0 1 1 5 0 2.5 2.5 0 0 1-5 0z"/><path id="rx9kgF" d="M555.5 2808.02a2.5 2.5 0 1 1 5 0 2.5 2.5 0 0 1-5 0z"/><path id="rx9kgG" d="M561.69 2808.02a2.5 2.5 0 1 1 5 0 2.5 2.5 0 0 1-5 0z"/><path id="rx9kgH" d="M567.89 2808.02a2.5 2.5 0 1 1 5 0 2.5 2.5 0 0 1-5 0z"/><path id="rx9kgI" d="M574.08 2808.02a2.5 2.5 0 1 1 5 0 2.5 2.5 0 0 1-5 0z"/><path id="rx9kgJ" d="M580.27 2808.02a2.5 2.5 0 1 1 5 0 2.5 2.5 0 0 1-5 0z"/><path id="rx9kgK" d="M580.27 2814.21a2.5 2.5 0 1 1 5 0 2.5 2.5 0 0 1-5 0z"/><path id="rx9kgL" d="M586.47 2758.47a2.5 2.5 0 1 1 5 0 2.5 2.5 0 0 1-5 0z"/><path id="rx9kgM" d="M586.47 2752.27a2.5 2.5 0 1 1 5 0 2.5 2.5 0 0 1-5 0z"/><path id="rx9kgN" d="M592.66 2758.47a2.5 2.5 0 1 1 5 0 2.5 2.5 0 0 1-5 0z"/><path id="rx9kgO" d="M592.66 2752.27a2.5 2.5 0 1 1 5 0 2.5 2.5 0 0 1-5 0z"/><path id="rx9kgP" d="M598.85 2758.47a2.5 2.5 0 1 1 5 0 2.5 2.5 0 0 1-5 0z"/><path id="rx9kgQ" d="M598.85 2752.27a2.5 2.5 0 1 1 5 0 2.5 2.5 0 0 1-5 0z"/><path id="rx9kgR" d="M605.05 2758.47a2.5 2.5 0 1 1 5 0 2.5 2.5 0 0 1-5 0z"/><path id="rx9kgS" d="M605.05 2746.08a2.5 2.5 0 1 1 5 0 2.5 2.5 0 0 1-5 0z"/><path id="rx9kgT" d="M611.24 2758.47a2.5 2.5 0 1 1 5 0 2.5 2.5 0 0 1-5 0z"/><path id="rx9kgU" d="M617.44 2758.47a2.5 2.5 0 1 1 5 0 2.5 2.5 0 0 1-5 0z"/><path id="rx9kgV" d="M611.24 2746.08a2.5 2.5 0 1 1 5 0 2.5 2.5 0 0 1-5 0z"/><path id="rx9kgW" d="M611.24 2739.89a2.5 2.5 0 1 1 5 0 2.5 2.5 0 0 1-5 0z"/><path id="rx9kgX" d="M617.44 2746.08a2.5 2.5 0 1 1 5 0 2.5 2.5 0 0 1-5 0z"/><path id="rx9kgY" d="M617.44 2739.89a2.5 2.5 0 1 1 5 0 2.5 2.5 0 0 1-5 0z"/><path id="rx9kgZ" d="M561.69 2814.21a2.5 2.5 0 1 1 5 0 2.5 2.5 0 0 1-5 0z"/><path id="rx9kha" d="M567.89 2814.21a2.5 2.5 0 1 1 5 0 2.5 2.5 0 0 1-5 0z"/><path id="rx9khb" d="M567.89 2820.4a2.5 2.5 0 1 1 5 0 2.5 2.5 0 0 1-5 0z"/><path id="rx9khc" d="M574.08 2814.21a2.5 2.5 0 1 1 5 0 2.5 2.5 0 0 1-5 0z"/><path id="rx9khd" d="M574.08 2820.4a2.5 2.5 0 1 1 5 0 2.5 2.5 0 0 1-5 0z"/><path id="rx9khe" d="M561.69 2820.4a2.5 2.5 0 1 1 5 0 2.5 2.5 0 0 1-5 0z"/><path id="rx9khf" d="M561.69 2826.6a2.5 2.5 0 1 1 5 0 2.5 2.5 0 0 1-5 0z"/><path id="rx9khg" d="M567.89 2789.44a2.5 2.5 0 1 1 5 0 2.5 2.5 0 0 1-5 0z"/><path id="rx9khh" d="M567.89 2758.47a2.5 2.5 0 1 1 5 0 2.5 2.5 0 0 1-5 0z"/><path id="rx9khi" d="M574.08 2789.44a2.5 2.5 0 1 1 5 0 2.5 2.5 0 0 1-5 0z"/><path id="rx9khj" d="M580.27 2789.44a2.5 2.5 0 1 1 5 0 2.5 2.5 0 0 1-5 0z"/><path id="rx9khk" d="M586.47 2789.44a2.5 2.5 0 1 1 5 0 2.5 2.5 0 0 1-5 0z"/><path id="rx9khl" d="M592.66 2789.44a2.5 2.5 0 1 1 5 0 2.5 2.5 0 0 1-5 0z"/><path id="rx9khm" d="M598.85 2789.44a2.5 2.5 0 1 1 5 0 2.5 2.5 0 0 1-5 0z"/><path id="rx9khn" d="M605.05 2789.44a2.5 2.5 0 1 1 5 0 2.5 2.5 0 0 1-5 0z"/><path id="rx9kho" d="M611.24 2789.44a2.5 2.5 0 1 1 5 0 2.5 2.5 0 0 1-5 0z"/><path id="rx9khp" d="M617.44 2789.44a2.5 2.5 0 1 1 5 0 2.5 2.5 0 0 1-5 0z"/><path id="rx9khq" d="M623.63 2789.44a2.5 2.5 0 1 1 5 0 2.5 2.5 0 0 1-5 0z"/><path id="rx9khr" d="M629.82 2789.44a2.5 2.5 0 1 1 5 0 2.5 2.5 0 0 1-5 0z"/><path id="rx9khs" d="M636.02 2789.44a2.5 2.5 0 1 1 5 0 2.5 2.5 0 0 1-5 0z"/><path id="rx9kht" d="M642.21 2789.44a2.5 2.5 0 1 1 5 0 2.5 2.5 0 0 1-5 0z"/><path id="rx9khu" d="M648.4 2789.44a2.5 2.5 0 1 1 5 0 2.5 2.5 0 0 1-5 0z"/><path id="rx9khv" d="M654.6 2789.44a2.5 2.5 0 1 1 5 0 2.5 2.5 0 0 1-5 0z"/><path id="rx9khw" d="M660.79 2789.44a2.5 2.5 0 1 1 5 0 2.5 2.5 0 0 1-5 0z"/><path id="rx9khx" d="M666.98 2789.44a2.5 2.5 0 1 1 5 0 2.5 2.5 0 0 1-5 0z"/><path id="rx9khy" d="M673.18 2789.44a2.5 2.5 0 1 1 5 0 2.5 2.5 0 0 1-5 0z"/><path id="rx9khz" d="M679.37 2789.44a2.5 2.5 0 1 1 5 0 2.5 2.5 0 0 1-5 0z"/><path id="rx9khA" d="M685.56 2789.44a2.5 2.5 0 1 1 5 0 2.5 2.5 0 0 1-5 0z"/><path id="rx9khB" d="M691.76 2789.44a2.5 2.5 0 1 1 5 0 2.5 2.5 0 0 1-5 0z"/><path id="rx9khC" d="M697.95 2789.44a2.5 2.5 0 1 1 5 0 2.5 2.5 0 0 1-5 0z"/><path id="rx9khD" d="M704.15 2789.44a2.5 2.5 0 1 1 5 0 2.5 2.5 0 0 1-5 0z"/><path id="rx9khE" d="M710.34 2789.44a2.5 2.5 0 1 1 5 0 2.5 2.5 0 0 1-5 0z"/><path id="rx9khF" d="M716.53 2789.44a2.5 2.5 0 1 1 5 0 2.5 2.5 0 0 1-5 0z"/><path id="rx9khG" d="M722.73 2789.44a2.5 2.5 0 1 1 5 0 2.5 2.5 0 0 1-5 0z"/><path id="rx9khH" d="M567.89 2777.05a2.5 2.5 0 1 1 5 0 2.5 2.5 0 0 1-5 0z"/><path id="rx9khI" d="M561.69 2746.08a2.5 2.5 0 1 1 5 0 2.5 2.5 0 0 1-5 0z"/><path id="rx9khJ" d="M574.08 2777.05a2.5 2.5 0 1 1 5 0 2.5 2.5 0 0 1-5 0z"/><path id="rx9khK" d="M580.27 2777.05a2.5 2.5 0 1 1 5 0 2.5 2.5 0 0 1-5 0z"/><path id="rx9khL" d="M586.47 2777.05a2.5 2.5 0 1 1 5 0 2.5 2.5 0 0 1-5 0z"/><path id="rx9khM" d="M592.66 2777.05a2.5 2.5 0 1 1 5 0 2.5 2.5 0 0 1-5 0z"/><path id="rx9khN" d="M598.85 2777.05a2.5 2.5 0 1 1 5 0 2.5 2.5 0 0 1-5 0z"/><path id="rx9khO" d="M605.05 2777.05a2.5 2.5 0 1 1 5 0 2.5 2.5 0 0 1-5 0z"/><path id="rx9khP" d="M611.24 2777.05a2.5 2.5 0 1 1 5 0 2.5 2.5 0 0 1-5 0z"/><path id="rx9khQ" d="M617.44 2777.05a2.5 2.5 0 1 1 5 0 2.5 2.5 0 0 1-5 0z"/><path id="rx9khR" d="M623.63 2777.05a2.5 2.5 0 1 1 5 0 2.5 2.5 0 0 1-5 0z"/><path id="rx9khS" d="M629.82 2777.05a2.5 2.5 0 1 1 5 0 2.5 2.5 0 0 1-5 0z"/><path id="rx9khT" d="M629.82 2764.66a2.5 2.5 0 1 1 5 0 2.5 2.5 0 0 1-5 0z"/><path id="rx9khU" d="M623.63 2764.66a2.5 2.5 0 1 1 5 0 2.5 2.5 0 0 1-5 0z"/><path id="rx9khV" d="M636.02 2777.05a2.5 2.5 0 1 1 5 0 2.5 2.5 0 0 1-5 0z"/><path id="rx9khW" d="M642.21 2777.05a2.5 2.5 0 1 1 5 0 2.5 2.5 0 0 1-5 0z"/><path id="rx9khX" d="M648.4 2777.05a2.5 2.5 0 1 1 5 0 2.5 2.5 0 0 1-5 0z"/><path id="rx9khY" d="M654.6 2777.05a2.5 2.5 0 1 1 5 0 2.5 2.5 0 0 1-5 0z"/><path id="rx9khZ" d="M660.79 2777.05a2.5 2.5 0 1 1 5 0 2.5 2.5 0 0 1-5 0z"/><path id="rx9kia" d="M666.98 2777.05a2.5 2.5 0 1 1 5 0 2.5 2.5 0 0 1-5 0z"/><path id="rx9kib" d="M673.18 2777.05a2.5 2.5 0 1 1 5 0 2.5 2.5 0 0 1-5 0z"/><path id="rx9kic" d="M679.37 2777.05a2.5 2.5 0 1 1 5 0 2.5 2.5 0 0 1-5 0z"/><path id="rx9kid" d="M685.56 2777.05a2.5 2.5 0 1 1 5 0 2.5 2.5 0 0 1-5 0z"/><path id="rx9kie" d="M691.76 2777.05a2.5 2.5 0 1 1 5 0 2.5 2.5 0 0 1-5 0z"/><path id="rx9kif" d="M697.95 2777.05a2.5 2.5 0 1 1 5 0 2.5 2.5 0 0 1-5 0z"/><path id="rx9kig" d="M704.15 2777.05a2.5 2.5 0 1 1 5 0 2.5 2.5 0 0 1-5 0z"/><path id="rx9kih" d="M710.34 2777.05a2.5 2.5 0 1 1 5 0 2.5 2.5 0 0 1-5 0z"/><path id="rx9kii" d="M716.53 2777.05a2.5 2.5 0 1 1 5 0 2.5 2.5 0 0 1-5 0z"/><path id="rx9kij" d="M722.73 2777.05a2.5 2.5 0 1 1 5 0 2.5 2.5 0 0 1-5 0z"/><path id="rx9kik" d="M580.27 2764.66a2.5 2.5 0 1 1 5 0 2.5 2.5 0 0 1-5 0z"/><path id="rx9kil" d="M580.27 2758.47a2.5 2.5 0 1 1 5 0 2.5 2.5 0 0 1-5 0z"/><path id="rx9kim" d="M586.47 2764.66a2.5 2.5 0 1 1 5 0 2.5 2.5 0 0 1-5 0z"/><path id="rx9kin" d="M592.66 2764.66a2.5 2.5 0 1 1 5 0 2.5 2.5 0 0 1-5 0z"/><path id="rx9kio" d="M598.85 2764.66a2.5 2.5 0 1 1 5 0 2.5 2.5 0 0 1-5 0z"/><path id="rx9kip" d="M605.05 2764.66a2.5 2.5 0 1 1 5 0 2.5 2.5 0 0 1-5 0z"/><path id="rx9kiq" d="M605.05 2752.27a2.5 2.5 0 1 1 5 0 2.5 2.5 0 0 1-5 0z"/><path id="rx9kir" d="M611.24 2764.66a2.5 2.5 0 1 1 5 0 2.5 2.5 0 0 1-5 0z"/><path id="rx9kis" d="M611.24 2752.27a2.5 2.5 0 1 1 5 0 2.5 2.5 0 0 1-5 0z"/><path id="rx9kit" d="M617.44 2752.27a2.5 2.5 0 1 1 5 0 2.5 2.5 0 0 1-5 0z"/><path id="rx9kiu" d="M617.44 2764.66a2.5 2.5 0 1 1 5 0 2.5 2.5 0 0 1-5 0z"/></defs><g><g transform="translate(-555 -2725)"><g><use fill="#d70c17" xlink:href="#rx9ka"/></g><g><use fill="#d70c17" xlink:href="#rx9kb"/></g><g><use fill="#d70c17" xlink:href="#rx9kc"/></g><g><use fill="#d70c17" xlink:href="#rx9kd"/></g><g><use fill="#d70c17" xlink:href="#rx9ke"/></g><g><use fill="#d70c17" xlink:href="#rx9kf"/></g><g><use fill="#d70c17" xlink:href="#rx9kg"/></g><g><use fill="#d70c17" xlink:href="#rx9kh"/></g><g><use fill="#d70c17" xlink:href="#rx9ki"/></g><g><use fill="#d70c17" xlink:href="#rx9kj"/></g><g><use fill="#d70c17" xlink:href="#rx9kk"/></g><g><use fill="#d70c17" xlink:href="#rx9kl"/></g><g><use fill="#d70c17" xlink:href="#rx9km"/></g><g><use fill="#d70c17" xlink:href="#rx9kn"/></g><g><use fill="#d70c17" xlink:href="#rx9ko"/></g><g><use fill="#d70c17" xlink:href="#rx9kp"/></g><g><use fill="#d70c17" xlink:href="#rx9kq"/></g><g><use fill="#d70c17" xlink:href="#rx9kr"/></g><g><use fill="#d70c17" xlink:href="#rx9ks"/></g><g><use fill="#d70c17" xlink:href="#rx9kt"/></g><g><use fill="#d70c17" xlink:href="#rx9ku"/></g><g><use fill="#d70c17" xlink:href="#rx9kv"/></g><g><use fill="#d70c17" xlink:href="#rx9kw"/></g><g><use fill="#d70c17" xlink:href="#rx9kx"/></g><g><use fill="#d70c17" xlink:href="#rx9ky"/></g><g><use fill="#d70c17" xlink:href="#rx9kz"/></g><g><use fill="#d70c17" xlink:href="#rx9kA"/></g><g><use fill="#d70c17" xlink:href="#rx9kB"/></g><g><use fill="#d70c17" xlink:href="#rx9kC"/></g><g><use fill="#d70c17" xlink:href="#rx9kD"/></g><g><use fill="#d70c17" xlink:href="#rx9kE"/></g><g><use fill="#d70c17" xlink:href="#rx9kF"/></g><g><use fill="#d70c17" xlink:href="#rx9kG"/></g><g><use fill="#d70c17" xlink:href="#rx9kH"/></g><g><use fill="#d70c17" xlink:href="#rx9kI"/></g><g><use fill="#d70c17" xlink:href="#rx9kJ"/></g><g><use fill="#d70c17" xlink:href="#rx9kK"/></g><g><use fill="#d70c17" xlink:href="#rx9kL"/></g><g><use fill="#d70c17" xlink:href="#rx9kM"/></g><g><use fill="#d70c17" xlink:href="#rx9kN"/></g><g><use fill="#d70c17" xlink:href="#rx9kO"/></g><g><use fill="#d70c17" xlink:href="#rx9kP"/></g><g><use fill="#d70c17" xlink:href="#rx9kQ"/></g><g><use fill="#d70c17" xlink:href="#rx9kR"/></g><g><use fill="#d70c17" xlink:href="#rx9kS"/></g><g><use fill="#d70c17" xlink:href="#rx9kT"/></g><g><use fill="#d70c17" xlink:href="#rx9kU"/></g><g><use fill="#d70c17" xlink:href="#rx9kV"/></g><g><use fill="#d70c17" xlink:href="#rx9kW"/></g><g><use fill="#d70c17" xlink:href="#rx9kX"/></g><g><use fill="#d70c17" xlink:href="#rx9kY"/></g><g><use fill="#d70c17" xlink:href="#rx9kZ"/></g><g><use fill="#d70c17" xlink:href="#rx9kaa"/></g><g><use fill="#d70c17" xlink:href="#rx9kab"/></g><g><use fill="#d70c17" xlink:href="#rx9kac"/></g><g><use fill="#d70c17" xlink:href="#rx9kad"/></g><g><use fill="#d70c17" xlink:href="#rx9kae"/></g><g><use fill="#d70c17" xlink:href="#rx9kaf"/></g><g><use fill="#d70c17" xlink:href="#rx9kag"/></g><g><use fill="#d70c17" xlink:href="#rx9kah"/></g><g><use fill="#d70c17" xlink:href="#rx9kai"/></g><g><use fill="#d70c17" xlink:href="#rx9kaj"/></g><g><use fill="#d70c17" xlink:href="#rx9kak"/></g><g><use fill="#d70c17" xlink:href="#rx9kal"/></g><g><use fill="#d70c17" xlink:href="#rx9kam"/></g><g><use fill="#d70c17" xlink:href="#rx9kan"/></g><g><use fill="#d70c17" xlink:href="#rx9kao"/></g><g><use fill="#d70c17" xlink:href="#rx9kap"/></g><g><use fill="#d70c17" xlink:href="#rx9kaq"/></g><g><use fill="#d70c17" xlink:href="#rx9kar"/></g><g><use fill="#d70c17" xlink:href="#rx9kas"/></g><g><use fill="#d70c17" xlink:href="#rx9kat"/></g><g><use fill="#d70c17" xlink:href="#rx9kau"/></g><g><use fill="#d70c17" xlink:href="#rx9kav"/></g><g><use fill="#d70c17" xlink:href="#rx9kaw"/></g><g><use fill="#d70c17" xlink:href="#rx9kax"/></g><g><use fill="#d70c17" xlink:href="#rx9kay"/></g><g><use fill="#d70c17" xlink:href="#rx9kaz"/></g><g><use fill="#d70c17" xlink:href="#rx9kaA"/></g><g><use fill="#d70c17" xlink:href="#rx9kaB"/></g><g><use fill="#d70c17" xlink:href="#rx9kaC"/></g><g><use fill="#d70c17" xlink:href="#rx9kaD"/></g><g><use fill="#d70c17" xlink:href="#rx9kaE"/></g><g><use fill="#d70c17" xlink:href="#rx9kaF"/></g><g><use fill="#d70c17" xlink:href="#rx9kaG"/></g><g><use fill="#d70c17" xlink:href="#rx9kaH"/></g><g><use fill="#d70c17" xlink:href="#rx9kaI"/></g><g><use fill="#d70c17" xlink:href="#rx9kaJ"/></g><g><use fill="#d70c17" xlink:href="#rx9kaK"/></g><g><use fill="#d70c17" xlink:href="#rx9kaL"/></g><g><use fill="#d70c17" xlink:href="#rx9kaM"/></g><g><use fill="#d70c17" xlink:href="#rx9kaN"/></g><g><use fill="#d70c17" xlink:href="#rx9kaO"/></g><g><use fill="#d70c17" xlink:href="#rx9kaP"/></g><g><use fill="#d70c17" xlink:href="#rx9kaQ"/></g><g><use fill="#d70c17" xlink:href="#rx9kaR"/></g><g><use fill="#d70c17" xlink:href="#rx9kaS"/></g><g><use fill="#d70c17" xlink:href="#rx9kaT"/></g><g><use fill="#d70c17" xlink:href="#rx9kaU"/></g><g><use fill="#d70c17" xlink:href="#rx9kaV"/></g><g><use fill="#d70c17" xlink:href="#rx9kaW"/></g><g><use fill="#d70c17" xlink:href="#rx9kaX"/></g><g><use fill="#d70c17" xlink:href="#rx9kaY"/></g><g><use fill="#d70c17" xlink:href="#rx9kaZ"/></g><g><use fill="#d70c17" xlink:href="#rx9kba"/></g><g><use fill="#d70c17" xlink:href="#rx9kbb"/></g><g><use fill="#d70c17" xlink:href="#rx9kbc"/></g><g><use fill="#d70c17" xlink:href="#rx9kbd"/></g><g><use fill="#d70c17" xlink:href="#rx9kbe"/></g><g><use fill="#d70c17" xlink:href="#rx9kbf"/></g><g><use fill="#d70c17" xlink:href="#rx9kbg"/></g><g><use fill="#d70c17" xlink:href="#rx9kbh"/></g><g><use fill="#d70c17" xlink:href="#rx9kbi"/></g><g><use fill="#d70c17" xlink:href="#rx9kbj"/></g><g><use fill="#d70c17" xlink:href="#rx9kbk"/></g><g><use fill="#d70c17" xlink:href="#rx9kbl"/></g><g><use fill="#d70c17" xlink:href="#rx9kbm"/></g><g><use fill="#d70c17" xlink:href="#rx9kbn"/></g><g><use fill="#d70c17" xlink:href="#rx9kbo"/></g><g><use fill="#d70c17" xlink:href="#rx9kbp"/></g><g><use fill="#d70c17" xlink:href="#rx9kbq"/></g><g><use fill="#d70c17" xlink:href="#rx9kbr"/></g><g><use fill="#d70c17" xlink:href="#rx9kbs"/></g><g><use fill="#d70c17" xlink:href="#rx9kbt"/></g><g><use fill="#d70c17" xlink:href="#rx9kbu"/></g><g><use fill="#d70c17" xlink:href="#rx9kbv"/></g><g><use fill="#d70c17" xlink:href="#rx9kbw"/></g><g><use fill="#d70c17" xlink:href="#rx9kbx"/></g><g><use fill="#d70c17" xlink:href="#rx9kby"/></g><g><use fill="#d70c17" xlink:href="#rx9kbz"/></g><g><use fill="#d70c17" xlink:href="#rx9kbA"/></g><g><use fill="#d70c17" xlink:href="#rx9kbB"/></g><g><use fill="#d70c17" xlink:href="#rx9kbC"/></g><g><use fill="#d70c17" xlink:href="#rx9kbD"/></g><g><use fill="#d70c17" xlink:href="#rx9kbE"/></g><g><use fill="#d70c17" xlink:href="#rx9kbF"/></g><g><use fill="#d70c17" xlink:href="#rx9kbG"/></g><g><use fill="#d70c17" xlink:href="#rx9kbH"/></g><g><use fill="#d70c17" xlink:href="#rx9kbI"/></g><g><use fill="#d70c17" xlink:href="#rx9kbJ"/></g><g><use fill="#d70c17" xlink:href="#rx9kbK"/></g><g><use fill="#d70c17" xlink:href="#rx9kbL"/></g><g><use fill="#d70c17" xlink:href="#rx9kbM"/></g><g><use fill="#d70c17" xlink:href="#rx9kbN"/></g><g><use fill="#d70c17" xlink:href="#rx9kbO"/></g><g><use fill="#d70c17" xlink:href="#rx9kbP"/></g><g><use fill="#d70c17" xlink:href="#rx9kbQ"/></g><g><use fill="#d70c17" xlink:href="#rx9kbR"/></g><g><use fill="#d70c17" xlink:href="#rx9kbS"/></g><g><use fill="#d70c17" xlink:href="#rx9kbT"/></g><g><use fill="#d70c17" xlink:href="#rx9kbU"/></g><g><use fill="#d70c17" xlink:href="#rx9kbV"/></g><g><use fill="#d70c17" xlink:href="#rx9kbW"/></g><g><use fill="#d70c17" xlink:href="#rx9kbX"/></g><g><use fill="#d70c17" xlink:href="#rx9kbY"/></g><g><use fill="#d70c17" xlink:href="#rx9kbZ"/></g><g><use fill="#d70c17" xlink:href="#rx9kca"/></g><g><use fill="#d70c17" xlink:href="#rx9kcb"/></g><g><use fill="#d70c17" xlink:href="#rx9kcc"/></g><g><use fill="#d70c17" xlink:href="#rx9kcd"/></g><g><use fill="#d70c17" xlink:href="#rx9kce"/></g><g><use fill="#d70c17" xlink:href="#rx9kcf"/></g><g><use fill="#d70c17" xlink:href="#rx9kcg"/></g><g><use fill="#d70c17" xlink:href="#rx9kch"/></g><g><use fill="#d70c17" xlink:href="#rx9kci"/></g><g><use fill="#d70c17" xlink:href="#rx9kcj"/></g><g><use fill="#d70c17" xlink:href="#rx9kck"/></g><g><use fill="#d70c17" xlink:href="#rx9kcl"/></g><g><use fill="#d70c17" xlink:href="#rx9kcm"/></g><g><use fill="#d70c17" xlink:href="#rx9kcn"/></g><g><use fill="#d70c17" xlink:href="#rx9kco"/></g><g><use fill="#d70c17" xlink:href="#rx9kcp"/></g><g><use fill="#d70c17" xlink:href="#rx9kcq"/></g><g><use fill="#d70c17" xlink:href="#rx9kcr"/></g><g><use fill="#d70c17" xlink:href="#rx9kcs"/></g><g><use fill="#d70c17" xlink:href="#rx9kct"/></g><g><use fill="#d70c17" xlink:href="#rx9kcu"/></g><g><use fill="#d70c17" xlink:href="#rx9kcv"/></g><g><use fill="#d70c17" xlink:href="#rx9kcw"/></g><g><use fill="#d70c17" xlink:href="#rx9kcx"/></g><g><use fill="#d70c17" xlink:href="#rx9kcy"/></g><g><use fill="#d70c17" xlink:href="#rx9kcz"/></g><g><use fill="#d70c17" xlink:href="#rx9kcA"/></g><g><use fill="#d70c17" xlink:href="#rx9kcB"/></g><g><use fill="#d70c17" xlink:href="#rx9kcC"/></g><g><use fill="#d70c17" xlink:href="#rx9kcD"/></g><g><use fill="#d70c17" xlink:href="#rx9kcE"/></g><g><use fill="#d70c17" xlink:href="#rx9kcF"/></g><g><use fill="#d70c17" xlink:href="#rx9kcG"/></g><g><use fill="#d70c17" xlink:href="#rx9kcH"/></g><g><use fill="#d70c17" xlink:href="#rx9kcI"/></g><g><use fill="#d70c17" xlink:href="#rx9kcJ"/></g><g><use fill="#d70c17" xlink:href="#rx9kcK"/></g><g><use fill="#d70c17" xlink:href="#rx9kcL"/></g><g><use fill="#d70c17" xlink:href="#rx9kcM"/></g><g><use fill="#d70c17" xlink:href="#rx9kcN"/></g><g><use fill="#d70c17" xlink:href="#rx9kcO"/></g><g><use fill="#d70c17" xlink:href="#rx9kcP"/></g><g><use fill="#d70c17" xlink:href="#rx9kcQ"/></g><g><use fill="#d70c17" xlink:href="#rx9kcR"/></g><g><use fill="#d70c17" xlink:href="#rx9kcS"/></g><g><use fill="#d70c17" xlink:href="#rx9kcT"/></g><g><use fill="#d70c17" xlink:href="#rx9kcU"/></g><g><use fill="#d70c17" xlink:href="#rx9kcV"/></g><g><use fill="#d70c17" xlink:href="#rx9kcW"/></g><g><use fill="#d70c17" xlink:href="#rx9kcX"/></g><g><use fill="#d70c17" xlink:href="#rx9kcY"/></g><g><use fill="#d70c17" xlink:href="#rx9kcZ"/></g><g><use fill="#d70c17" xlink:href="#rx9kda"/></g><g><use fill="#d70c17" xlink:href="#rx9kdb"/></g><g><use fill="#d70c17" xlink:href="#rx9kdc"/></g><g><use fill="#d70c17" xlink:href="#rx9kdd"/></g><g><use fill="#d70c17" xlink:href="#rx9kde"/></g><g><use fill="#d70c17" xlink:href="#rx9kdf"/></g><g><use fill="#d70c17" xlink:href="#rx9kdg"/></g><g><use fill="#d70c17" xlink:href="#rx9kdh"/></g><g><use fill="#d70c17" xlink:href="#rx9kdi"/></g><g><use fill="#d70c17" xlink:href="#rx9kdj"/></g><g><use fill="#d70c17" xlink:href="#rx9kdk"/></g><g><use fill="#d70c17" xlink:href="#rx9kdl"/></g><g><use fill="#d70c17" xlink:href="#rx9kdm"/></g><g><use fill="#d70c17" xlink:href="#rx9kdn"/></g><g><use fill="#d70c17" xlink:href="#rx9kdo"/></g><g><use fill="#d70c17" xlink:href="#rx9kdp"/></g><g><use fill="#d70c17" xlink:href="#rx9kdq"/></g><g><use fill="#d70c17" xlink:href="#rx9kdr"/></g><g><use fill="#d70c17" xlink:href="#rx9kds"/></g><g><use fill="#d70c17" xlink:href="#rx9kdt"/></g><g><use fill="#d70c17" xlink:href="#rx9kdu"/></g><g><use fill="#d70c17" xlink:href="#rx9kdv"/></g><g><use fill="#d70c17" xlink:href="#rx9kdw"/></g><g><use fill="#d70c17" xlink:href="#rx9kdx"/></g><g><use fill="#d70c17" xlink:href="#rx9kdy"/></g><g><use fill="#d70c17" xlink:href="#rx9kdz"/></g><g><use fill="#d70c17" xlink:href="#rx9kdA"/></g><g><use fill="#d70c17" xlink:href="#rx9kdB"/></g><g><use fill="#d70c17" xlink:href="#rx9kdC"/></g><g><use fill="#d70c17" xlink:href="#rx9kdD"/></g><g><use fill="#d70c17" xlink:href="#rx9kdE"/></g><g><use fill="#d70c17" xlink:href="#rx9kdF"/></g><g><use fill="#d70c17" xlink:href="#rx9kdG"/></g><g><use fill="#d70c17" xlink:href="#rx9kdH"/></g><g><use fill="#d70c17" xlink:href="#rx9kdI"/></g><g><use fill="#d70c17" xlink:href="#rx9kdJ"/></g><g><use fill="#d70c17" xlink:href="#rx9kdK"/></g><g><use fill="#d70c17" xlink:href="#rx9kdL"/></g><g><use fill="#d70c17" xlink:href="#rx9kdM"/></g><g><use fill="#d70c17" xlink:href="#rx9kdN"/></g><g><use fill="#d70c17" xlink:href="#rx9kdO"/></g><g><use fill="#d70c17" xlink:href="#rx9kdP"/></g><g><use fill="#d70c17" xlink:href="#rx9kdQ"/></g><g><use fill="#d70c17" xlink:href="#rx9kdR"/></g><g><use fill="#d70c17" xlink:href="#rx9kdS"/></g><g><use fill="#d70c17" xlink:href="#rx9kdT"/></g><g><use fill="#d70c17" xlink:href="#rx9kdU"/></g><g><use fill="#d70c17" xlink:href="#rx9kdV"/></g><g><use fill="#d70c17" xlink:href="#rx9kdW"/></g><g><use fill="#d70c17" xlink:href="#rx9kdX"/></g><g><use fill="#d70c17" xlink:href="#rx9kdY"/></g><g><use fill="#d70c17" xlink:href="#rx9kdZ"/></g><g><use fill="#d70c17" xlink:href="#rx9kea"/></g><g><use fill="#d70c17" xlink:href="#rx9keb"/></g><g><use fill="#d70c17" xlink:href="#rx9kec"/></g><g><use fill="#d70c17" xlink:href="#rx9ked"/></g><g><use fill="#d70c17" xlink:href="#rx9kee"/></g><g><use fill="#d70c17" xlink:href="#rx9kef"/></g><g><use fill="#d70c17" xlink:href="#rx9keg"/></g><g><use fill="#d70c17" xlink:href="#rx9keh"/></g><g><use fill="#d70c17" xlink:href="#rx9kei"/></g><g><use fill="#d70c17" xlink:href="#rx9kej"/></g><g><use fill="#d70c17" xlink:href="#rx9kek"/></g><g><use fill="#d70c17" xlink:href="#rx9kel"/></g><g><use fill="#d70c17" xlink:href="#rx9kem"/></g><g><use fill="#d70c17" xlink:href="#rx9ken"/></g><g><use fill="#d70c17" xlink:href="#rx9keo"/></g><g><use fill="#d70c17" xlink:href="#rx9kep"/></g><g><use fill="#d70c17" xlink:href="#rx9keq"/></g><g><use fill="#d70c17" xlink:href="#rx9ker"/></g><g><use fill="#d70c17" xlink:href="#rx9kes"/></g><g><use fill="#d70c17" xlink:href="#rx9ket"/></g><g><use fill="#d70c17" xlink:href="#rx9keu"/></g><g><use fill="#d70c17" xlink:href="#rx9kev"/></g><g><use fill="#d70c17" xlink:href="#rx9kew"/></g><g><use fill="#d70c17" xlink:href="#rx9kex"/></g><g><use fill="#d70c17" xlink:href="#rx9key"/></g><g><use fill="#d70c17" xlink:href="#rx9kez"/></g><g><use fill="#d70c17" xlink:href="#rx9keA"/></g><g><use fill="#d70c17" xlink:href="#rx9keB"/></g><g><use fill="#d70c17" xlink:href="#rx9keC"/></g><g><use fill="#d70c17" xlink:href="#rx9keD"/></g><g><use fill="#d70c17" xlink:href="#rx9keE"/></g><g><use fill="#d70c17" xlink:href="#rx9keF"/></g><g><use fill="#d70c17" xlink:href="#rx9keG"/></g><g><use fill="#d70c17" xlink:href="#rx9keH"/></g><g><use fill="#d70c17" xlink:href="#rx9keI"/></g><g><use fill="#d70c17" xlink:href="#rx9keJ"/></g><g><use fill="#d70c17" xlink:href="#rx9keK"/></g><g><use fill="#d70c17" xlink:href="#rx9keL"/></g><g><use fill="#d70c17" xlink:href="#rx9keM"/></g><g><use fill="#d70c17" xlink:href="#rx9keN"/></g><g><use fill="#d70c17" xlink:href="#rx9keO"/></g><g><use fill="#d70c17" xlink:href="#rx9keP"/></g><g><use fill="#d70c17" xlink:href="#rx9keQ"/></g><g><use fill="#d70c17" xlink:href="#rx9keR"/></g><g><use fill="#d70c17" xlink:href="#rx9keS"/></g><g><use fill="#d70c17" xlink:href="#rx9keT"/></g><g><use fill="#d70c17" xlink:href="#rx9keU"/></g><g><use fill="#d70c17" xlink:href="#rx9keV"/></g><g><use fill="#d70c17" xlink:href="#rx9keW"/></g><g><use fill="#d70c17" xlink:href="#rx9keX"/></g><g><use fill="#d70c17" xlink:href="#rx9keY"/></g><g><use fill="#d70c17" xlink:href="#rx9keZ"/></g><g><use fill="#d70c17" xlink:href="#rx9kfa"/></g><g><use fill="#d70c17" xlink:href="#rx9kfb"/></g><g><use fill="#d70c17" xlink:href="#rx9kfc"/></g><g><use fill="#d70c17" xlink:href="#rx9kfd"/></g><g><use fill="#d70c17" xlink:href="#rx9kfe"/></g><g><use fill="#d70c17" xlink:href="#rx9kff"/></g><g><use fill="#d70c17" xlink:href="#rx9kfg"/></g><g><use fill="#d70c17" xlink:href="#rx9kfh"/></g><g><use fill="#d70c17" xlink:href="#rx9kfi"/></g><g><use fill="#d70c17" xlink:href="#rx9kfj"/></g><g><use fill="#d70c17" xlink:href="#rx9kfk"/></g><g><use fill="#d70c17" xlink:href="#rx9kfl"/></g><g><use fill="#d70c17" xlink:href="#rx9kfm"/></g><g><use fill="#d70c17" xlink:href="#rx9kfn"/></g><g><use fill="#d70c17" xlink:href="#rx9kfo"/></g><g><use fill="#d70c17" xlink:href="#rx9kfp"/></g><g><use fill="#d70c17" xlink:href="#rx9kfq"/></g><g><use fill="#d70c17" xlink:href="#rx9kfr"/></g><g><use fill="#d70c17" xlink:href="#rx9kfs"/></g><g><use fill="#d70c17" xlink:href="#rx9kft"/></g><g><use fill="#d70c17" xlink:href="#rx9kfu"/></g><g><use fill="#d70c17" xlink:href="#rx9kfv"/></g><g><use fill="#d70c17" xlink:href="#rx9kfw"/></g><g><use fill="#d70c17" xlink:href="#rx9kfx"/></g><g><use fill="#d70c17" xlink:href="#rx9kfy"/></g><g><use fill="#d70c17" xlink:href="#rx9kfz"/></g><g><use fill="#d70c17" xlink:href="#rx9kfA"/></g><g><use fill="#d70c17" xlink:href="#rx9kfB"/></g><g><use fill="#d70c17" xlink:href="#rx9kfC"/></g><g><use fill="#d70c17" xlink:href="#rx9kfD"/></g><g><use fill="#d70c17" xlink:href="#rx9kfE"/></g><g><use fill="#d70c17" xlink:href="#rx9kfF"/></g><g><use fill="#d70c17" xlink:href="#rx9kfG"/></g><g><use fill="#d70c17" xlink:href="#rx9kfH"/></g><g><use fill="#d70c17" xlink:href="#rx9kfI"/></g><g><use fill="#d70c17" xlink:href="#rx9kfJ"/></g><g><use fill="#d70c17" xlink:href="#rx9kfK"/></g><g><use fill="#d70c17" xlink:href="#rx9kfL"/></g><g><use fill="#d70c17" xlink:href="#rx9kfM"/></g><g><use fill="#d70c17" xlink:href="#rx9kfN"/></g><g><use fill="#d70c17" xlink:href="#rx9kfO"/></g><g><use fill="#d70c17" xlink:href="#rx9kfP"/></g><g><use fill="#d70c17" xlink:href="#rx9kfQ"/></g><g><use fill="#d70c17" xlink:href="#rx9kfR"/></g><g><use fill="#d70c17" xlink:href="#rx9kfS"/></g><g><use fill="#d70c17" xlink:href="#rx9kfT"/></g><g><use fill="#d70c17" xlink:href="#rx9kfU"/></g><g><use fill="#d70c17" xlink:href="#rx9kfV"/></g><g><use fill="#d70c17" xlink:href="#rx9kfW"/></g><g><use fill="#d70c17" xlink:href="#rx9kfX"/></g><g><use fill="#d70c17" xlink:href="#rx9kfY"/></g><g><use fill="#d70c17" xlink:href="#rx9kfZ"/></g><g><use fill="#d70c17" xlink:href="#rx9kga"/></g><g><use fill="#d70c17" xlink:href="#rx9kgb"/></g><g><use fill="#d70c17" xlink:href="#rx9kgc"/></g><g><use fill="#d70c17" xlink:href="#rx9kgd"/></g><g><use fill="#d70c17" xlink:href="#rx9kge"/></g><g><use fill="#d70c17" xlink:href="#rx9kgf"/></g><g><use fill="#d70c17" xlink:href="#rx9kgg"/></g><g><use fill="#d70c17" xlink:href="#rx9kgh"/></g><g><use fill="#d70c17" xlink:href="#rx9kgi"/></g><g><use fill="#d70c17" xlink:href="#rx9kgj"/></g><g><use fill="#d70c17" xlink:href="#rx9kgk"/></g><g><use fill="#d70c17" xlink:href="#rx9kgl"/></g><g><use fill="#d70c17" xlink:href="#rx9kgm"/></g><g><use fill="#d70c17" xlink:href="#rx9kgn"/></g><g><use fill="#d70c17" xlink:href="#rx9kgo"/></g><g><use fill="#d70c17" xlink:href="#rx9kgp"/></g><g><use fill="#d70c17" xlink:href="#rx9kgq"/></g><g><use fill="#d70c17" xlink:href="#rx9kgr"/></g><g><use fill="#d70c17" xlink:href="#rx9kgs"/></g><g><use fill="#d70c17" xlink:href="#rx9kgt"/></g><g><use fill="#d70c17" xlink:href="#rx9kgu"/></g><g><use fill="#d70c17" xlink:href="#rx9kgv"/></g><g><use fill="#d70c17" xlink:href="#rx9kgw"/></g><g><use fill="#d70c17" xlink:href="#rx9kgx"/></g><g><use fill="#d70c17" xlink:href="#rx9kgy"/></g><g><use fill="#d70c17" xlink:href="#rx9kgz"/></g><g><use fill="#d70c17" xlink:href="#rx9kgA"/></g><g><use fill="#d70c17" xlink:href="#rx9kgB"/></g><g><use fill="#d70c17" xlink:href="#rx9kgC"/></g><g><use fill="#d70c17" xlink:href="#rx9kgD"/></g><g><use fill="#d70c17" xlink:href="#rx9kgE"/></g><g><use fill="#d70c17" xlink:href="#rx9kgF"/></g><g><use fill="#d70c17" xlink:href="#rx9kgG"/></g><g><use fill="#d70c17" xlink:href="#rx9kgH"/></g><g><use fill="#d70c17" xlink:href="#rx9kgI"/></g><g><use fill="#d70c17" xlink:href="#rx9kgJ"/></g><g><use fill="#d70c17" xlink:href="#rx9kgK"/></g><g><use fill="#d70c17" xlink:href="#rx9kgL"/></g><g><use fill="#d70c17" xlink:href="#rx9kgM"/></g><g><use fill="#d70c17" xlink:href="#rx9kgN"/></g><g><use fill="#d70c17" xlink:href="#rx9kgO"/></g><g><use fill="#d70c17" xlink:href="#rx9kgP"/></g><g><use fill="#d70c17" xlink:href="#rx9kgQ"/></g><g><use fill="#d70c17" xlink:href="#rx9kgR"/></g><g><use fill="#d70c17" xlink:href="#rx9kgS"/></g><g><use fill="#d70c17" xlink:href="#rx9kgT"/></g><g><use fill="#d70c17" xlink:href="#rx9kgU"/></g><g><use fill="#d70c17" xlink:href="#rx9kgV"/></g><g><use fill="#d70c17" xlink:href="#rx9kgW"/></g><g><use fill="#d70c17" xlink:href="#rx9kgX"/></g><g><use fill="#d70c17" xlink:href="#rx9kgY"/></g><g><use fill="#d70c17" xlink:href="#rx9kgZ"/></g><g><use fill="#d70c17" xlink:href="#rx9kha"/></g><g><use fill="#d70c17" xlink:href="#rx9khb"/></g><g><use fill="#d70c17" xlink:href="#rx9khc"/></g><g><use fill="#d70c17" xlink:href="#rx9khd"/></g><g><use fill="#d70c17" xlink:href="#rx9khe"/></g><g><use fill="#d70c17" xlink:href="#rx9khf"/></g><g><use fill="#d70c17" xlink:href="#rx9khg"/></g><g><use fill="#d70c17" xlink:href="#rx9khh"/></g><g><use fill="#d70c17" xlink:href="#rx9khi"/></g><g><use fill="#d70c17" xlink:href="#rx9khj"/></g><g><use fill="#d70c17" xlink:href="#rx9khk"/></g><g><use fill="#d70c17" xlink:href="#rx9khl"/></g><g><use fill="#d70c17" xlink:href="#rx9khm"/></g><g><use fill="#d70c17" xlink:href="#rx9khn"/></g><g><use fill="#d70c17" xlink:href="#rx9kho"/></g><g><use fill="#d70c17" xlink:href="#rx9khp"/></g><g><use fill="#d70c17" xlink:href="#rx9khq"/></g><g><use fill="#d70c17" xlink:href="#rx9khr"/></g><g><use fill="#d70c17" xlink:href="#rx9khs"/></g><g><use fill="#d70c17" xlink:href="#rx9kht"/></g><g><use fill="#d70c17" xlink:href="#rx9khu"/></g><g><use fill="#d70c17" xlink:href="#rx9khv"/></g><g><use fill="#d70c17" xlink:href="#rx9khw"/></g><g><use fill="#d70c17" xlink:href="#rx9khx"/></g><g><use fill="#d70c17" xlink:href="#rx9khy"/></g><g><use fill="#d70c17" xlink:href="#rx9khz"/></g><g><use fill="#d70c17" xlink:href="#rx9khA"/></g><g><use fill="#d70c17" xlink:href="#rx9khB"/></g><g><use fill="#d70c17" xlink:href="#rx9khC"/></g><g><use fill="#d70c17" xlink:href="#rx9khD"/></g><g><use fill="#d70c17" xlink:href="#rx9khE"/></g><g><use fill="#d70c17" xlink:href="#rx9khF"/></g><g><use fill="#d70c17" xlink:href="#rx9khG"/></g><g><use fill="#d70c17" xlink:href="#rx9khH"/></g><g><use fill="#d70c17" xlink:href="#rx9khI"/></g><g><use fill="#d70c17" xlink:href="#rx9khJ"/></g><g><use fill="#d70c17" xlink:href="#rx9khK"/></g><g><use fill="#d70c17" xlink:href="#rx9khL"/></g><g><use fill="#d70c17" xlink:href="#rx9khM"/></g><g><use fill="#d70c17" xlink:href="#rx9khN"/></g><g><use fill="#d70c17" xlink:href="#rx9khO"/></g><g><use fill="#d70c17" xlink:href="#rx9khP"/></g><g><use fill="#d70c17" xlink:href="#rx9khQ"/></g><g><use fill="#d70c17" xlink:href="#rx9khR"/></g><g><use fill="#d70c17" xlink:href="#rx9khS"/></g><g><use fill="#d70c17" xlink:href="#rx9khT"/></g><g><use fill="#d70c17" xlink:href="#rx9khU"/></g><g><use fill="#d70c17" xlink:href="#rx9khV"/></g><g><use fill="#d70c17" xlink:href="#rx9khW"/></g><g><use fill="#d70c17" xlink:href="#rx9khX"/></g><g><use fill="#d70c17" xlink:href="#rx9khY"/></g><g><use fill="#d70c17" xlink:href="#rx9khZ"/></g><g><use fill="#d70c17" xlink:href="#rx9kia"/></g><g><use fill="#d70c17" xlink:href="#rx9kib"/></g><g><use fill="#d70c17" xlink:href="#rx9kic"/></g><g><use fill="#d70c17" xlink:href="#rx9kid"/></g><g><use fill="#d70c17" xlink:href="#rx9kie"/></g><g><use fill="#d70c17" xlink:href="#rx9kif"/></g><g><use fill="#d70c17" xlink:href="#rx9kig"/></g><g><use fill="#d70c17" xlink:href="#rx9kih"/></g><g><use fill="#d70c17" xlink:href="#rx9kii"/></g><g><use fill="#d70c17" xlink:href="#rx9kij"/></g><g><use fill="#d70c17" xlink:href="#rx9kik"/></g><g><use fill="#d70c17" xlink:href="#rx9kil"/></g><g><use fill="#d70c17" xlink:href="#rx9kim"/></g><g><use fill="#d70c17" xlink:href="#rx9kin"/></g><g><use fill="#d70c17" xlink:href="#rx9kio"/></g><g><use fill="#d70c17" xlink:href="#rx9kip"/></g><g><use fill="#d70c17" xlink:href="#rx9kiq"/></g><g><use fill="#d70c17" xlink:href="#rx9kir"/></g><g><use fill="#d70c17" xlink:href="#rx9kis"/></g><g><use fill="#d70c17" xlink:href="#rx9kit"/></g><g><use fill="#d70c17" xlink:href="#rx9kiu"/></g></g></g></svg>