<svg xmlns="http://www.w3.org/2000/svg" xmlns:xlink="http://www.w3.org/1999/xlink" width="20" height="20" viewBox="0 0 20 20"><defs><path id="tl7ua" d="M701.8 5444.2l-2.97-2.97a1.55 1.55 0 0 0-2.18.04l-1.5 1.5-.3-.17a14.9 14.9 0 0 1-3.6-2.6c-1.36-1.37-2.08-2.66-2.6-3.6l-.16-.3 1-1 .5-.5c.61-.6.63-1.59.04-2.18l-2.97-2.97a1.55 1.55 0 0 0-2.19.04l-.84.84.03.03a4.84 4.84 0 0 0-1 2.45c-.4 3.25 1.1 6.22 5.13 10.25 5.57 5.58 10.06 5.16 10.26 5.14a5.02 5.02 0 0 0 2.45-1l.02.02.84-.84c.62-.6.63-1.59.04-2.18z"/></defs><g><g transform="translate(-683 -5429)"><use fill="#d70c17" xlink:href="#tl7ua"/></g></g></svg>