<svg xmlns="http://www.w3.org/2000/svg" xmlns:xlink="http://www.w3.org/1999/xlink" width="91" height="128" viewBox="0 0 91 128"><defs><path id="3tvza" d="M288.88 2759.34a2.1 2.1 0 0 0-3.82 1.76 26.25 26.25 0 0 1-23.82 37.2 26.25 26.25 0 0 1-26.21-26.22 26.25 26.25 0 0 1 26.22-26.22c7.39 0 14.48 3.14 19.44 8.63a2.1 2.1 0 0 0 3.12-2.82 30.49 30.49 0 0 0-22.56-10.02 30.46 30.46 0 0 0-30.43 30.43 30.46 30.46 0 0 0 30.43 30.42 30.46 30.46 0 0 0 27.63-43.16z"/><path id="3tvzb" d="M297.15 2789.87c-1.95 1.28-3.97 2.6-5.3 4.43-1.36 1.86-2 4.2-2.61 6.47-.69 2.53-1.34 4.92-2.8 5.98-1.42 1.04-3.88.93-6.48.8-2.36-.1-4.8-.22-7.02.5-2.12.68-3.97 2.18-5.76 3.63-2.08 1.67-4.03 3.26-5.93 3.26-1.9 0-3.85-1.59-5.93-3.26-1.79-1.45-3.64-2.95-5.76-3.64-1.4-.45-2.88-.57-4.38-.57-.88 0-1.77.04-2.64.08-2.6.13-5.06.24-6.49-.8-1.45-1.06-2.1-3.45-2.79-5.98-.61-2.27-1.25-4.61-2.6-6.47-1.34-1.84-3.36-3.16-5.31-4.43-2.22-1.44-4.31-2.8-4.88-4.55-.53-1.63.33-3.9 1.24-6.31.85-2.24 1.73-4.56 1.73-6.94 0-2.38-.88-4.7-1.73-6.94-.9-2.4-1.77-4.68-1.24-6.3.57-1.75 2.66-3.12 4.88-4.56 1.95-1.27 3.97-2.59 5.3-4.42 1.36-1.86 2-4.2 2.61-6.48.69-2.53 1.34-4.92 2.8-5.98 1.42-1.04 3.88-.92 6.48-.8 2.36.11 4.8.23 7.02-.49 2.12-.69 3.97-2.18 5.76-3.63 2.08-1.68 4.04-3.26 5.93-3.26 1.9 0 3.85 1.58 5.93 3.26 1.79 1.44 3.64 2.94 5.76 3.63 2.21.72 4.65.6 7.02.5 2.6-.13 5.06-.25 6.49.8 1.45 1.05 2.1 3.44 2.79 5.97.61 2.27 1.25 4.62 2.6 6.48 1.34 1.83 3.36 3.15 5.31 4.42 2.22 1.44 4.3 2.8 4.88 4.55.53 1.63-.33 3.9-1.24 6.31-.85 2.24-1.73 4.56-1.73 6.94 0 2.38.88 4.7 1.73 6.94.9 2.4 1.77 4.68 1.24 6.31-.57 1.75-2.66 3.11-4.88 4.55zm-13.43 47.87a2.1 2.1 0 0 0-2.18.6l-7.44 8.3-8.07-28.94c1.36-.79 2.62-1.8 3.8-2.75 1.55-1.26 3.03-2.46 4.4-2.9 1.5-.49 3.45-.4 5.53-.3 2.16.1 4.37.2 6.39-.32l8.23 29.56zm21-71.12c1.13-2.98 2.3-6.06 1.3-9.1-1.02-3.16-3.97-5.08-6.57-6.78-1.7-1.1-3.32-2.16-4.2-3.37-.9-1.23-1.41-3.11-1.95-5.1-.81-2.98-1.73-6.35-4.38-8.28-2.62-1.91-5.95-1.75-9.16-1.6-2.08.1-4.04.19-5.52-.3-1.38-.44-2.86-1.63-4.42-2.9-2.43-1.96-5.19-4.19-8.57-4.19s-6.14 2.23-8.57 4.2c-1.56 1.26-3.04 2.45-4.42 2.9-1.48.48-3.44.39-5.52.29-3.21-.15-6.54-.31-9.16 1.6-2.65 1.93-3.57 5.3-4.38 8.28-.54 1.99-1.05 3.87-1.95 5.1-.88 1.21-2.5 2.26-4.2 3.38-2.6 1.7-5.55 3.61-6.58 6.77-.98 3.04.18 6.12 1.3 9.1.75 1.98 1.46 3.84 1.46 5.45 0 1.61-.7 3.48-1.45 5.45-1.13 2.98-2.3 6.07-1.3 9.1 1.02 3.16 3.97 5.08 6.57 6.78 1.7 1.11 3.32 2.16 4.2 3.37.9 1.24 1.41 3.12 1.95 5.1.81 2.98 1.73 6.36 4.38 8.28 2.62 1.91 5.95 1.76 9.16 1.6 2.08-.1 4.04-.18 5.52.3 1.38.45 2.86 1.64 4.42 2.9 1.17.95 2.43 1.96 3.79 2.75l-8.07 28.94-7.44-8.3a2.1 2.1 0 0 0-2.18-.6l-10.66 3.24 6.68-23.97a2.1 2.1 0 0 0-4.05-1.13l-7.72 27.67a2.1 2.1 0 0 0 2.64 2.57l13.05-3.97 9.11 10.15a2.1 2.1 0 0 0 3.6-.84l9.01-32.36a7.7 7.7 0 0 0 1.61 0l9.03 32.36a2.1 2.1 0 0 0 3.6.84l9.1-10.15 13.05 3.97a2.1 2.1 0 0 0 2.64-2.57l-9.56-34.27c1.9-1.97 2.69-4.84 3.39-7.4.54-2 1.05-3.87 1.95-5.1.88-1.22 2.5-2.27 4.2-3.38 2.6-1.7 5.55-3.62 6.58-6.78.98-3.03-.18-6.12-1.3-9.1-.75-1.97-1.46-3.84-1.46-5.45 0-1.6.7-3.47 1.45-5.45z"/><path id="3tvzc" d="M269.38 2758.99h-16.26a2.1 2.1 0 0 0 0 4.2h16.26a2.1 2.1 0 0 0 0-4.2z"/><path id="3tvzd" d="M269.38 2780.95h-16.26a2.1 2.1 0 0 0 0 4.2h16.26a2.1 2.1 0 0 0 0-4.2z"/><path id="3tvze" d="M275.2 2769.97h-6.34a2.1 2.1 0 0 0 0 4.2h6.34a2.1 2.1 0 1 0 0-4.2z"/><path id="3tvzf" d="M262.27 2769.97H247.3a2.1 2.1 0 0 0 0 4.2h14.98a2.1 2.1 0 0 0 0-4.2z"/></defs><g><g transform="translate(-216 -2725)"><g><use fill="#d70c17" xlink:href="#3tvza"/></g><g><use fill="#d70c17" xlink:href="#3tvzb"/></g><g><use fill="#d70c17" xlink:href="#3tvzc"/></g><g><use fill="#d70c17" xlink:href="#3tvzd"/></g><g><use fill="#d70c17" xlink:href="#3tvze"/></g><g><use fill="#d70c17" xlink:href="#3tvzf"/></g></g></g></svg>