<svg xmlns="http://www.w3.org/2000/svg" xmlns:xlink="http://www.w3.org/1999/xlink" width="20" height="20" viewBox="0 0 20 20"><defs><path id="oesra" d="M698.66 5509.67H701c.35.82.57 1.72.64 2.65H699c-.04-.92-.15-1.81-.33-2.65zm0 6.65c.18-.84.3-1.73.33-2.65h2.65a8.5 8.5 0 0 1-.64 2.65zm-.35 1.35h2a8.71 8.71 0 0 1-3.57 3.15c.64-.86 1.18-1.93 1.57-3.15zm-4.64 0h3.25c-.71 2.07-1.89 3.54-3.25 3.91zm3.97-4a14.7 14.7 0 0 1-.34 2.65h-3.63v-2.65zm-.34-4c.19.82.3 1.72.34 2.65h-3.97v-2.65zm-.38-1.34h-3.25v-3.91c1.36.37 2.54 1.84 3.25 3.91zm1.4 0c-.4-1.22-.93-2.3-1.58-3.15 1.46.7 2.7 1.8 3.57 3.15zm-9.25 0c.71-2.07 1.89-3.54 3.25-3.91v3.91zm-.72 4c.04-.94.15-1.84.34-2.66h3.63v2.65zm.34 4c-.19-.83-.3-1.73-.34-2.66h3.97v2.65zm.38 1.34h3.25v3.91c-1.36-.37-2.54-1.84-3.25-3.91zm-1.38 0c.39 1.22.92 2.3 1.57 3.15a8.7 8.7 0 0 1-3.57-3.15zm-.68-4c.04.92.15 1.81.33 2.65H685a8.53 8.53 0 0 1-.64-2.65zm.33-4c-.18.84-.3 1.73-.33 2.65h-2.65c.07-.93.3-1.83.64-2.65zm.35-1.34h-2a8.71 8.71 0 0 1 3.57-3.15 10.6 10.6 0 0 0-1.57 3.15zm5.98-5.3v-.03h-1.34v.02a10 10 0 0 0-9.3 9.31H683v1.34h.02a10 10 0 0 0 9.31 9.3v.03h1.34v-.02a10 10 0 0 0 9.3-9.31h.03v-1.34h-.02a10 10 0 0 0-9.31-9.3z"/></defs><g><g transform="translate(-683 -5503)"><g><use fill="#d70c17" xlink:href="#oesra"/></g></g></g></svg>